<svg width="36" height="36" viewBox="0 0 36 36" fill="none" xmlns="http://www.w3.org/2000/svg">
<path d="M30.774 21.231L21.231 30.774C20.986 31.016 20.7105 31.1975 20.4045 31.3185C20.0985 31.4395 19.7935 31.5 19.4895 31.5C19.1855 31.5 18.883 31.4395 18.582 31.3185C18.281 31.1975 18.008 31.016 17.763 30.774L5.21996 18.255C4.98296 18.038 4.80396 17.779 4.68296 17.478C4.56196 17.178 4.50146 16.862 4.50146 16.53V6.951C4.50146 6.277 4.73747 5.7 5.20947 5.22C5.68147 4.74 6.26247 4.5 6.95247 4.5H16.5315C16.8555 4.5 17.17 4.5655 17.475 4.6965C17.78 4.8275 18.0435 5.0045 18.2655 5.2275L30.774 17.7435C31.024 17.9885 31.206 18.264 31.32 18.57C31.434 18.876 31.491 19.1845 31.491 19.4955C31.491 19.8065 31.434 20.1115 31.32 20.4105C31.206 20.7095 31.024 20.983 30.774 21.231ZM20.1615 29.712L29.703 20.169C29.895 19.977 29.991 19.751 29.991 19.491C29.991 19.231 29.895 19.005 29.703 18.813L16.899 6.03H6.95247C6.68247 6.03 6.45647 6.1165 6.27447 6.2895C6.09147 6.4625 5.99996 6.6835 5.99996 6.9525V16.5225C5.99996 16.6385 6.01946 16.754 6.05847 16.869C6.09646 16.985 6.16346 17.091 6.25946 17.187L18.8055 29.712C18.9975 29.904 19.223 30 19.482 30C19.742 30 19.9685 29.904 20.1615 29.712ZM9.82497 11.337C10.246 11.337 10.603 11.191 10.896 10.899C11.189 10.607 11.336 10.253 11.337 9.837C11.337 9.412 11.191 9.051 10.899 8.754C10.607 8.457 10.253 8.308 9.83697 8.307C9.41196 8.307 9.05096 8.4545 8.75396 8.7495C8.45696 9.0445 8.30847 9.403 8.30847 9.825C8.30847 10.247 8.45597 10.604 8.75097 10.896C9.04597 11.188 9.40397 11.335 9.82497 11.337Z" fill="#1F1F1F"/>
<path d="M30.3093 21.1113L21.1162 30.3009C20.8801 30.5339 20.6147 30.7087 20.32 30.8252C20.0252 30.9417 19.7314 31 19.4385 31C19.1457 31 18.8542 30.9417 18.5643 30.8252C18.2743 30.7087 18.0113 30.5339 17.7753 30.3009L5.69216 18.2456C5.46385 18.0366 5.29141 17.7872 5.17485 17.4973C5.05828 17.2084 5 16.9041 5 16.5844V7.36022C5 6.71118 5.22735 6.15556 5.68204 5.69333C6.13674 5.23111 6.69644 5 7.36114 5H16.589C16.9011 5 17.204 5.06307 17.4979 5.18922C17.7917 5.31537 18.0455 5.48581 18.2594 5.70056L30.3093 17.753C30.5501 17.9889 30.7254 18.2542 30.8353 18.5489C30.9451 18.8436 31 19.1406 31 19.4401C31 19.7396 30.9451 20.0333 30.8353 20.3212C30.7254 20.6091 30.5501 20.8725 30.3093 21.1113ZM20.0859 29.2782L29.2776 20.0887C29.4625 19.9038 29.555 19.6861 29.555 19.4358C29.555 19.1854 29.4625 18.9678 29.2776 18.7829L16.943 6.47333H7.36114C7.10104 6.47333 6.88333 6.55663 6.708 6.72322C6.53171 6.88981 6.44356 7.10263 6.44356 7.36167V16.5772C6.44356 16.6889 6.46235 16.8001 6.49992 16.9109C6.53652 17.0226 6.60107 17.1247 6.69355 17.2171L18.7796 29.2782C18.9645 29.4631 19.1818 29.5556 19.4313 29.5556C19.6817 29.5556 19.8999 29.4631 20.0859 29.2782Z" fill="#1F1F1F"/>
</svg>
