<svg xmlns="http://www.w3.org/2000/svg" width="24" height="21" viewBox="0 0 24 21" fill="none">
  <path d="M12 6.17647C15.1579 6.17647 17.6842 8.64706 17.6842 11.7353C17.6842 14.8235 15.1579 17.2941 12 17.2941C8.84211 17.2941 6.31579 14.8235 6.31579 11.7353C6.31579 8.64706 8.84211 6.17647 12 6.17647ZM12 7.41176C10.8275 7.41176 9.70295 7.86728 8.87384 8.6781C8.04473 9.48892 7.57895 10.5886 7.57895 11.7353C7.57895 12.882 8.04473 13.9817 8.87384 14.7925C9.70295 15.6033 10.8275 16.0588 12 16.0588C13.1725 16.0588 14.297 15.6033 15.1262 14.7925C15.9553 13.9817 16.4211 12.882 16.4211 11.7353C16.4211 10.5886 15.9553 9.48892 15.1262 8.6781C14.297 7.86728 13.1725 7.41176 12 7.41176ZM3.78947 2.47059H6.31579L8.8421 0H15.1579L17.6842 2.47059H20.2105C21.2156 2.47059 22.1794 2.86103 22.8901 3.55602C23.6008 4.251 24 5.19361 24 6.17647V17.2941C24 18.277 23.6008 19.2196 22.8901 19.9146C22.1794 20.6096 21.2156 21 20.2105 21H3.78947C2.78444 21 1.82058 20.6096 1.10991 19.9146C0.399247 19.2196 0 18.277 0 17.2941V6.17647C0 5.19361 0.399247 4.251 1.10991 3.55602C1.82058 2.86103 2.78444 2.47059 3.78947 2.47059ZM9.36 1.23529L6.83368 3.70588H3.78947C3.11945 3.70588 2.47687 3.96618 2.0031 4.4295C1.52932 4.89283 1.26316 5.52123 1.26316 6.17647V17.2941C1.26316 17.9494 1.52932 18.5778 2.0031 19.0411C2.47687 19.5044 3.11945 19.7647 3.78947 19.7647H20.2105C20.8805 19.7647 21.5231 19.5044 21.9969 19.0411C22.4707 18.5778 22.7368 17.9494 22.7368 17.2941V6.17647C22.7368 5.52123 22.4707 4.89283 21.9969 4.4295C21.5231 3.96618 20.8805 3.70588 20.2105 3.70588H17.1663L14.64 1.23529H9.36Z" fill="#1F1F1F"/>
</svg>