<svg xmlns="http://www.w3.org/2000/svg" width="24" height="11" viewBox="0 0 24 11" fill="none">
  <path d="M5.436 10.9987C3.932 10.9987 2.65022 10.4628 1.59067 9.391C0.531112 8.31923 0.000890005 7.02223 1.11576e-06 5.5C-0.000887773 3.97777 0.529334 2.68077 1.59067 1.609C2.652 0.537232 3.93378 0.000899134 5.436 0H9.488C9.67644 0 9.83467 0.0647377 9.96267 0.194213C10.0907 0.323688 10.1547 0.484184 10.1547 0.6757C10.1547 0.867215 10.0907 1.02726 9.96267 1.15584C9.83467 1.28441 9.67644 1.3487 9.488 1.3487H5.43333C4.30711 1.3487 3.34222 1.75511 2.53867 2.56793C1.73511 3.38074 1.33333 4.3581 1.33333 5.5C1.33333 6.6419 1.73511 7.61881 2.53867 8.43073C3.34222 9.24265 4.30667 9.64905 5.432 9.64995H9.488C9.67644 9.64995 9.83467 9.71469 9.96267 9.84416C10.0907 9.97364 10.1547 10.1341 10.1547 10.3257C10.1547 10.5172 10.0907 10.6772 9.96267 10.8058C9.83467 10.9344 9.67644 10.9987 9.488 10.9987H5.436ZM8 6.17435C7.81067 6.17435 7.65244 6.10961 7.52533 5.98014C7.39822 5.85066 7.33422 5.69017 7.33333 5.49865C7.33244 5.30714 7.39644 5.14709 7.52533 5.01851C7.65422 4.88994 7.81244 4.82565 8 4.82565H16C16.1893 4.82565 16.3476 4.89039 16.4747 5.01986C16.6018 5.14934 16.6658 5.30983 16.6667 5.50135C16.6676 5.69287 16.6036 5.85291 16.4747 5.98149C16.3458 6.11006 16.1876 6.17435 16 6.17435H8ZM14.5133 10.9987C14.324 10.9987 14.1653 10.9339 14.0373 10.8044C13.9093 10.675 13.8453 10.5145 13.8453 10.323C13.8453 10.1314 13.9093 9.97139 14.0373 9.84282C14.1653 9.71424 14.3236 9.64995 14.512 9.64995H18.5667C19.6929 9.64995 20.6578 9.24354 21.4613 8.43073C22.2649 7.61791 22.6667 6.641 22.6667 5.5C22.6667 4.359 22.2649 3.38209 21.4613 2.56927C20.6578 1.75646 19.6933 1.35005 18.568 1.35005H14.5133C14.324 1.35005 14.1653 1.28531 14.0373 1.15584C13.9102 1.02636 13.8467 0.865866 13.8467 0.67435C13.8467 0.482835 13.9102 0.322789 14.0373 0.194213C14.1644 0.0656368 14.3231 0.0013486 14.5133 0.0013486H18.564C20.068 0.0013486 21.3502 0.537232 22.4107 1.609C23.4711 2.68077 24.0009 3.97777 24 5.5C23.9991 7.02223 23.4689 8.31923 22.4093 9.391C21.3498 10.4628 20.068 10.9991 18.564 11L14.5133 10.9987Z" fill="#1F1F1F"/>
</svg>