<svg width="36" height="54" viewBox="0 0 36 54" fill="none" xmlns="http://www.w3.org/2000/svg">
<path d="M11.625 12.6875V10.5625C11.625 8.87174 12.2967 7.25024 13.4922 6.05469C14.6877 4.85915 16.3092 4.1875 18 4.1875C19.6908 4.1875 21.3123 4.85915 22.5078 6.05469C23.7034 7.25024 24.375 8.87174 24.375 10.5625V12.6875M6.3125 12.6875C6.03071 12.6875 5.76046 12.7994 5.5612 12.9987C5.36194 13.198 5.25 13.4682 5.25 13.75V28.0938C5.25 30.1019 6.96063 31.8125 8.96875 31.8125H27.0312C29.0394 31.8125 30.75 30.1849 30.75 28.1768V13.75C30.75 13.4682 30.6381 13.198 30.4388 12.9987C30.2395 12.7994 29.9693 12.6875 29.6875 12.6875H6.3125Z" stroke="#1F1F1F" stroke-width="2" stroke-linecap="round" stroke-linejoin="round"/>
<path d="M6.61286 50V39.57H10.9949C11.5829 39.57 12.0915 39.682 12.5209 39.906C12.9595 40.1207 13.2955 40.424 13.5289 40.816C13.7715 41.208 13.8929 41.6653 13.8929 42.188C13.8929 42.7293 13.7575 43.21 13.4869 43.63C13.2255 44.0407 12.8475 44.3533 12.3529 44.568L12.3389 44.232C12.7495 44.3813 13.0995 44.5913 13.3889 44.862C13.6875 45.1327 13.9162 45.45 14.0749 45.814C14.2335 46.1687 14.3129 46.5513 14.3129 46.962C14.3129 47.8953 14.0142 48.6373 13.4169 49.188C12.8289 49.7293 12.0262 50 11.0089 50H6.61286ZM7.73286 48.95H11.0089C11.6715 48.95 12.1989 48.7773 12.5909 48.432C12.9922 48.0773 13.1929 47.592 13.1929 46.976C13.1929 46.3693 12.9922 45.8887 12.5909 45.534C12.1989 45.17 11.6715 44.988 11.0089 44.988H7.73286V48.95ZM7.73286 43.98H10.9109C11.4709 43.98 11.9189 43.8167 12.2549 43.49C12.6002 43.1633 12.7729 42.7433 12.7729 42.23C12.7729 41.7073 12.6002 41.3107 12.2549 41.04C11.9189 40.76 11.4709 40.62 10.9109 40.62H7.73286V43.98ZM18.8259 50.168C18.3032 50.168 17.8272 50.0467 17.3979 49.804C16.9686 49.552 16.6279 49.2067 16.3759 48.768C16.1332 48.32 16.0119 47.8067 16.0119 47.228V42.496H17.0619V47.102C17.0619 47.5033 17.1412 47.858 17.2999 48.166C17.4679 48.4647 17.6966 48.698 17.9859 48.866C18.2846 49.034 18.6252 49.118 19.0079 49.118C19.3906 49.118 19.7312 49.034 20.0299 48.866C20.3286 48.6887 20.5619 48.4413 20.7299 48.124C20.8979 47.7973 20.9819 47.41 20.9819 46.962V42.496H22.0319V50H20.9819V48.544L21.2199 48.6C21.0426 49.0853 20.7392 49.468 20.3099 49.748C19.8806 50.028 19.3859 50.168 18.8259 50.168ZM24.3453 53.08C24.1959 53.08 24.0419 53.066 23.8833 53.038C23.7339 53.0193 23.5846 52.982 23.4353 52.926V51.946C23.5286 51.9553 23.6453 51.9693 23.7853 51.988C23.9346 52.016 24.0839 52.03 24.2333 52.03C24.6906 52.03 25.0406 51.932 25.2833 51.736C25.5259 51.5493 25.7639 51.1853 25.9973 50.644L26.4733 49.524L26.4453 50.448L23.2673 42.496H24.4013L27.0053 49.062H26.7113L29.3013 42.496H30.4633L27.0333 50.952C26.8839 51.316 26.6926 51.6613 26.4593 51.988C26.2353 52.3147 25.9506 52.576 25.6053 52.772C25.2599 52.9773 24.8399 53.08 24.3453 53.08Z" fill="#1F1F1F"/>
</svg>
