<svg width="36" height="54" viewBox="0 0 36 54" fill="none" xmlns="http://www.w3.org/2000/svg">
<path d="M4.5 29.25V6C4.5 5.175 5.175 4.5 6 4.5H30C30.825 4.5 31.5 5.175 31.5 6V24C31.5 24.825 30.825 25.5 30 25.5H8.25L4.5 29.25Z" stroke="#1F1F1F" stroke-width="2" stroke-linecap="round" stroke-linejoin="round"/>
<path d="M12 10.5H24" stroke="#1F1F1F" stroke-width="2" stroke-linecap="round" stroke-linejoin="round"/>
<path d="M12 15H24" stroke="#1F1F1F" stroke-width="2" stroke-linecap="round" stroke-linejoin="round"/>
<path d="M12 19.5H18" stroke="#1F1F1F" stroke-width="2" stroke-linecap="round" stroke-linejoin="round"/>
<path d="M5.992 51.168C5.25467 51.168 4.578 51.0373 3.962 50.776C3.346 50.5053 2.80933 50.132 2.352 49.656C1.904 49.1707 1.554 48.6013 1.302 47.948C1.05 47.2947 0.924 46.576 0.924 45.792C0.924 45.008 1.05 44.2893 1.302 43.636C1.554 42.9827 1.904 42.4133 2.352 41.928C2.80933 41.4427 3.346 41.0693 3.962 40.808C4.578 40.5373 5.25467 40.402 5.992 40.402C6.70133 40.402 7.336 40.528 7.896 40.78C8.46533 41.032 8.94133 41.3587 9.324 41.76C9.716 42.152 9.996 42.5673 10.164 43.006L9.114 43.468C8.85267 42.8613 8.45133 42.376 7.91 42.012C7.378 41.6387 6.73867 41.452 5.992 41.452C5.22667 41.452 4.54533 41.634 3.948 41.998C3.35067 42.362 2.884 42.8707 2.548 43.524C2.212 44.168 2.044 44.924 2.044 45.792C2.044 46.6507 2.212 47.4067 2.548 48.06C2.884 48.7133 3.35067 49.222 3.948 49.586C4.54533 49.9407 5.22667 50.118 5.992 50.118C6.73867 50.118 7.378 49.936 7.91 49.572C8.45133 49.208 8.85267 48.7227 9.114 48.116L10.164 48.578C9.996 49.0073 9.716 49.4227 9.324 49.824C8.94133 50.216 8.46533 50.538 7.896 50.79C7.336 51.042 6.70133 51.168 5.992 51.168ZM12.0155 51V40.402H13.0655V44.952L12.8275 44.896C13.0142 44.4107 13.3175 44.028 13.7375 43.748C14.1668 43.468 14.6615 43.328 15.2215 43.328C15.7535 43.328 16.2295 43.4493 16.6495 43.692C17.0788 43.9347 17.4148 44.2707 17.6575 44.7C17.9095 45.12 18.0355 45.596 18.0355 46.128V51H16.9855V46.534C16.9855 46.0767 16.9015 45.6893 16.7335 45.372C16.5655 45.0547 16.3322 44.812 16.0335 44.644C15.7442 44.4667 15.4128 44.378 15.0395 44.378C14.6662 44.378 14.3302 44.4667 14.0315 44.644C13.7328 44.812 13.4948 45.0593 13.3175 45.386C13.1495 45.7033 13.0655 46.086 13.0655 46.534V51H12.0155ZM22.2109 51.168C21.7349 51.168 21.3102 51.0793 20.9369 50.902C20.5636 50.7153 20.2696 50.4633 20.0549 50.146C19.8402 49.8287 19.7329 49.4647 19.7329 49.054C19.7329 48.662 19.8169 48.3073 19.9849 47.99C20.1529 47.6633 20.4142 47.388 20.7689 47.164C21.1236 46.94 21.5762 46.7813 22.1269 46.688L25.0669 46.198V47.15L22.3789 47.598C21.8376 47.6913 21.4456 47.864 21.2029 48.116C20.9696 48.368 20.8529 48.6667 20.8529 49.012C20.8529 49.348 20.9836 49.6327 21.2449 49.866C21.5156 50.0993 21.8609 50.216 22.2809 50.216C22.7942 50.216 23.2422 50.1087 23.6249 49.894C24.0076 49.67 24.3062 49.3713 24.5209 48.998C24.7356 48.6247 24.8429 48.2093 24.8429 47.752V45.848C24.8429 45.4 24.6796 45.036 24.3529 44.756C24.0262 44.476 23.6016 44.336 23.0789 44.336C22.6216 44.336 22.2202 44.4527 21.8749 44.686C21.5296 44.91 21.2729 45.204 21.1049 45.568L20.1529 45.05C20.2929 44.7327 20.5122 44.4433 20.8109 44.182C21.1189 43.9207 21.4689 43.7153 21.8609 43.566C22.2529 43.4073 22.6589 43.328 23.0789 43.328C23.6296 43.328 24.1149 43.4353 24.5349 43.65C24.9642 43.8647 25.2956 44.1633 25.5289 44.546C25.7716 44.9193 25.8929 45.3533 25.8929 45.848V51H24.8429V49.502L24.9969 49.656C24.8662 49.936 24.6609 50.1927 24.3809 50.426C24.1102 50.65 23.7882 50.832 23.4149 50.972C23.0509 51.1027 22.6496 51.168 22.2109 51.168ZM30.7859 51.084C30.1139 51.084 29.5959 50.888 29.2319 50.496C28.8679 50.104 28.6859 49.544 28.6859 48.816V44.546H27.2999V43.496H27.6499C27.9672 43.496 28.2192 43.3933 28.4059 43.188C28.5926 42.9733 28.6859 42.7073 28.6859 42.39V41.76H29.7359V43.496H31.3879V44.546H29.7359V48.816C29.7359 49.068 29.7732 49.292 29.8479 49.488C29.9226 49.6747 30.0486 49.824 30.2259 49.936C30.4126 50.048 30.6599 50.104 30.9679 50.104C31.0426 50.104 31.1312 50.0993 31.2339 50.09C31.3366 50.0807 31.4252 50.0713 31.4999 50.062V51C31.3879 51.028 31.2619 51.0467 31.1219 51.056C30.9819 51.0747 30.8699 51.084 30.7859 51.084Z" fill="#1F1F1F"/>
</svg>
