<svg width="34" height="34" viewBox="0 0 34 34" fill="none" xmlns="http://www.w3.org/2000/svg">
<path d="M10.625 11.6875V9.5625C10.625 7.87174 11.2967 6.25024 12.4922 5.05469C13.6877 3.85915 15.3092 3.1875 17 3.1875C18.6908 3.1875 20.3123 3.85915 21.5078 5.05469C22.7034 6.25024 23.375 7.87174 23.375 9.5625V11.6875M5.3125 11.6875C5.03071 11.6875 4.76046 11.7994 4.5612 11.9987C4.36194 12.198 4.25 12.4682 4.25 12.75V27.0938C4.25 29.1019 5.96063 30.8125 7.96875 30.8125H26.0312C28.0394 30.8125 29.75 29.1849 29.75 27.1768V12.75C29.75 12.4682 29.6381 12.198 29.4388 11.9987C29.2395 11.7994 28.9693 11.6875 28.6875 11.6875H5.3125Z" stroke="#1F1F1F" stroke-width="2" stroke-linecap="round" stroke-linejoin="round"/>
</svg>
