<svg xmlns="http://www.w3.org/2000/svg" width="14" height="15" viewBox="0 0 14 15" fill="none">
  <path d="M0.753667 3.90292C1.34327 2.72959 2.24742 1.74325 3.36515 1.05405C4.48288 0.364843 5.7702 -8.95949e-05 7.08333 1.64995e-08C8.99229 1.64995e-08 10.596 0.701958 11.8221 1.84521L9.79129 3.87671C9.05675 3.17475 8.12317 2.81704 7.08333 2.81704C5.23813 2.81704 3.67625 4.06371 3.12021 5.7375C2.97854 6.1625 2.89779 6.61583 2.89779 7.08333C2.89779 7.55083 2.97854 8.00417 3.12021 8.42917C3.67696 10.1037 5.23813 11.3496 7.08333 11.3496C8.03604 11.3496 8.84708 11.0982 9.48175 10.6732C9.84969 10.4309 10.1647 10.1166 10.4077 9.74914C10.6507 9.38171 10.8167 8.96881 10.8956 8.53542H7.08333V5.79558H13.7544C13.838 6.25883 13.8833 6.74192 13.8833 7.24412C13.8833 9.40171 13.1113 11.2179 11.7711 12.4504C10.5995 13.5327 8.99583 14.1667 7.08333 14.1667C6.15303 14.167 5.23178 13.9841 4.37222 13.6282C3.51266 13.2724 2.73165 12.7507 2.07383 12.0928C1.41601 11.435 0.894268 10.654 0.538429 9.79445C0.18259 8.93489 -0.000371777 8.01363 5.67173e-07 7.08333C5.67173e-07 5.94008 0.273417 4.85917 0.753667 3.90292Z" fill="#FAFAFA"/>
</svg>