<svg xmlns="http://www.w3.org/2000/svg" width="43" height="43" viewBox="0 0 43 43" fill="none">
  <mask id="path-1-outside-1_1470_5834" maskUnits="userSpaceOnUse" x="1.51172" y="3.26343" width="41" height="40" fill="black">
    <rect fill="white" x="1.51172" y="3.26343" width="41" height="40"/>
    <path d="M20.8682 13.5857H27.3545L28.999 5.26343H34.9219L33.2764 13.5857H39.9033L38.6348 19.6589H32.0547L31.0371 24.9089H25.0781L25.5684 22.4675L25.6123 22.2458C25.88 20.9121 24.8589 19.6689 23.4932 19.6589H19.6465L18.9541 23.2312L18.876 23.6384C18.6176 24.9734 19.6468 26.2117 21.0146 26.2117H23.5684V26.2156H32.498V26.2117H37.2715L36.002 32.2849H29.5635L27.918 40.655H21.9961L23.6416 32.2849H17.1553L15.5107 40.655H9.54102L11.2334 32.2849H4.51172L5.78125 26.2117H9.90234V26.7166H18.832V25.4099H12.5693L13.7246 19.6589H7.14453L8.41309 13.5857H14.8994L16.5439 5.26343H22.5137L20.8682 13.5857Z"/>
  </mask>
  <path d="M20.8682 13.5857H27.3545L28.999 5.26343H34.9219L33.2764 13.5857H39.9033L38.6348 19.6589H32.0547L31.0371 24.9089H25.0781L25.5684 22.4675L25.6123 22.2458C25.88 20.9121 24.8589 19.6689 23.4932 19.6589H19.6465L18.9541 23.2312L18.876 23.6384C18.6176 24.9734 19.6468 26.2117 21.0146 26.2117H23.5684V26.2156H32.498V26.2117H37.2715L36.002 32.2849H29.5635L27.918 40.655H21.9961L23.6416 32.2849H17.1553L15.5107 40.655H9.54102L11.2334 32.2849H4.51172L5.78125 26.2117H9.90234V26.7166H18.832V25.4099H12.5693L13.7246 19.6589H7.14453L8.41309 13.5857H14.8994L16.5439 5.26343H22.5137L20.8682 13.5857Z" fill="black"/>
  <path d="M20.8682 13.5857L18.98 13.2124L18.5257 15.5104H20.8682V13.5857ZM27.3545 13.5857V15.5104H28.9361L29.2427 13.9588L27.3545 13.5857ZM28.999 5.26343V3.33875H27.4175L27.1109 4.89031L28.999 5.26343ZM34.9219 5.26343L36.81 5.63675L37.2644 3.33875H34.9219V5.26343ZM33.2764 13.5857L31.3882 13.2124L30.9339 15.5104H33.2764V13.5857ZM39.9033 13.5857L41.7873 13.9792L42.2716 11.661H39.9033V13.5857ZM38.6348 19.6589V21.5836H40.199L40.5188 20.0525L38.6348 19.6589ZM32.0547 19.6589V17.7343H30.4672L30.1652 19.2927L32.0547 19.6589ZM31.0371 24.9089V26.8336H32.6246L32.9266 25.2752L31.0371 24.9089ZM25.0781 24.9089L23.1911 24.53L22.7286 26.8336H25.0781V24.9089ZM25.5684 22.4675L27.4554 22.8464L27.4563 22.8418L25.5684 22.4675ZM25.6123 22.2458L23.7253 21.8671L23.7244 21.8716L25.6123 22.2458ZM23.4932 19.6589L23.5072 17.7343H23.4932V19.6589ZM19.6465 19.6589V17.7343H18.059L17.757 19.2927L19.6465 19.6589ZM18.9541 23.2312L17.0646 22.865L17.0639 22.8686L18.9541 23.2312ZM18.876 23.6384L20.7656 24.0042L20.7662 24.0011L18.876 23.6384ZM23.5684 26.2117H25.493V24.287H23.5684V26.2117ZM23.5684 26.2156H21.6437V28.1403H23.5684V26.2156ZM32.498 26.2156V28.1403H34.4227V26.2156H32.498ZM32.498 26.2117V24.287H30.5734V26.2117H32.498ZM37.2715 26.2117L39.1554 26.6055L39.6401 24.287H37.2715V26.2117ZM36.002 32.2849V34.2096H37.5659L37.8859 32.6787L36.002 32.2849ZM29.5635 32.2849V30.3602H27.9803L27.6749 31.9136L29.5635 32.2849ZM27.918 40.655V42.5797H29.5011L29.8065 41.0263L27.918 40.655ZM21.9961 40.655L20.1076 40.2838L19.6562 42.5797H21.9961V40.655ZM23.6416 32.2849L25.5301 32.6562L25.9815 30.3602H23.6416V32.2849ZM17.1553 32.2849V30.3602H15.572L15.2667 31.9139L17.1553 32.2849ZM15.5107 40.655V42.5797H17.0941L17.3993 41.0261L15.5107 40.655ZM9.54102 40.655L7.65451 40.2736L7.18823 42.5797H9.54102V40.655ZM11.2334 32.2849L13.1199 32.6663L13.5862 30.3602H11.2334V32.2849ZM4.51172 32.2849L2.62776 31.8911L2.14311 34.2096H4.51172V32.2849ZM5.78125 26.2117V24.287H4.2173L3.89729 25.8179L5.78125 26.2117ZM9.90234 26.2117H11.827V24.287H9.90234V26.2117ZM9.90234 26.7166H7.97767V28.6412H9.90234V26.7166ZM18.832 26.7166V28.6412H20.7567V26.7166H18.832ZM18.832 25.4099H20.7567V23.4852H18.832V25.4099ZM12.5693 25.4099L10.6824 25.0308L10.2196 27.3346H12.5693V25.4099ZM13.7246 19.6589L15.6116 20.038L16.0744 17.7343H13.7246V19.6589ZM7.14453 19.6589L5.26051 19.2654L4.7763 21.5836H7.14453V19.6589ZM8.41309 13.5857V11.661H6.84889L6.52907 13.1922L8.41309 13.5857ZM14.8994 13.5857V15.5104H16.481L16.7876 13.9588L14.8994 13.5857ZM16.5439 5.26343V3.33875H14.9624L14.6558 4.89031L16.5439 5.26343ZM22.5137 5.26343L24.4018 5.63675L24.8562 3.33875H22.5137V5.26343ZM20.8682 13.5857V15.5104H27.3545V13.5857V11.661H20.8682V13.5857ZM27.3545 13.5857L29.2427 13.9588L30.8872 5.63654L28.999 5.26343L27.1109 4.89031L25.4663 13.2126L27.3545 13.5857ZM28.999 5.26343V7.1881H34.9219V5.26343V3.33875H28.999V5.26343ZM34.9219 5.26343L33.0338 4.8901L31.3882 13.2124L33.2764 13.5857L35.1645 13.959L36.81 5.63675L34.9219 5.26343ZM33.2764 13.5857V15.5104H39.9033V13.5857V11.661H33.2764V13.5857ZM39.9033 13.5857L38.0193 13.1922L36.7507 19.2654L38.6348 19.6589L40.5188 20.0525L41.7873 13.9792L39.9033 13.5857ZM38.6348 19.6589V17.7343H32.0547V19.6589V21.5836H38.6348V19.6589ZM32.0547 19.6589L30.1652 19.2927L29.1476 24.5427L31.0371 24.9089L32.9266 25.2752L33.9442 20.0252L32.0547 19.6589ZM31.0371 24.9089V22.9843H25.0781V24.9089V26.8336H31.0371V24.9089ZM25.0781 24.9089L26.9651 25.2878L27.4554 22.8464L25.5684 22.4675L23.6813 22.0886L23.1911 24.53L25.0781 24.9089ZM25.5684 22.4675L27.4563 22.8418L27.5002 22.6201L25.6123 22.2458L23.7244 21.8716L23.6804 22.0933L25.5684 22.4675ZM25.6123 22.2458L27.4993 22.6246C28.0083 20.0892 26.0659 17.7529 23.5072 17.7343L23.4932 19.6589L23.4792 21.5836C23.6518 21.5848 23.7518 21.735 23.7253 21.8671L25.6123 22.2458ZM23.4932 19.6589V17.7343H19.6465V19.6589V21.5836H23.4932V19.6589ZM19.6465 19.6589L17.757 19.2927L17.0646 22.865L18.9541 23.2312L20.8436 23.5974L21.536 20.0252L19.6465 19.6589ZM18.9541 23.2312L17.0639 22.8686L16.9858 23.2758L18.876 23.6384L20.7662 24.0011L20.8443 23.5938L18.9541 23.2312ZM18.876 23.6384L16.9864 23.2727C16.4953 25.8097 18.4518 28.1363 21.0146 28.1363V26.2117V24.287C20.8418 24.287 20.7398 24.1371 20.7656 24.0042L18.876 23.6384ZM21.0146 26.2117V28.1363H23.5684V26.2117V24.287H21.0146V26.2117ZM23.5684 26.2117H21.6437V26.2156H23.5684H25.493V26.2117H23.5684ZM23.5684 26.2156V28.1403H32.498V26.2156V24.2909H23.5684V26.2156ZM32.498 26.2156H34.4227V26.2117H32.498H30.5734V26.2156H32.498ZM32.498 26.2117V28.1363H37.2715V26.2117V24.287H32.498V26.2117ZM37.2715 26.2117L35.3875 25.8179L34.118 31.8911L36.002 32.2849L37.8859 32.6787L39.1554 26.6055L37.2715 26.2117ZM36.002 32.2849V30.3602H29.5635V32.2849V34.2096H36.002V32.2849ZM29.5635 32.2849L27.6749 31.9136L26.0294 40.2838L27.918 40.655L29.8065 41.0263L31.452 32.6562L29.5635 32.2849ZM27.918 40.655V38.7304H21.9961V40.655V42.5797H27.918V40.655ZM21.9961 40.655L23.8846 41.0263L25.5301 32.6562L23.6416 32.2849L21.7531 31.9136L20.1076 40.2838L21.9961 40.655ZM23.6416 32.2849V30.3602H17.1553V32.2849V34.2096H23.6416V32.2849ZM17.1553 32.2849L15.2667 31.9139L13.6222 40.284L15.5107 40.655L17.3993 41.0261L19.0438 32.656L17.1553 32.2849ZM15.5107 40.655V38.7304H9.54102V40.655V42.5797H15.5107V40.655ZM9.54102 40.655L11.4275 41.0365L13.1199 32.6663L11.2334 32.2849L9.3469 31.9035L7.65451 40.2736L9.54102 40.655ZM11.2334 32.2849V30.3602H4.51172V32.2849V34.2096H11.2334V32.2849ZM4.51172 32.2849L6.39567 32.6787L7.66521 26.6055L5.78125 26.2117L3.89729 25.8179L2.62776 31.8911L4.51172 32.2849ZM5.78125 26.2117V28.1363H9.90234V26.2117V24.287H5.78125V26.2117ZM9.90234 26.2117H7.97767V26.7166H9.90234H11.827V26.2117H9.90234ZM9.90234 26.7166V28.6412H18.832V26.7166V24.7919H9.90234V26.7166ZM18.832 26.7166H20.7567V25.4099H18.832H16.9074V26.7166H18.832ZM18.832 25.4099V23.4852H12.5693V25.4099V27.3346H18.832V25.4099ZM12.5693 25.4099L14.4563 25.789L15.6116 20.038L13.7246 19.6589L11.8376 19.2799L10.6824 25.0308L12.5693 25.4099ZM13.7246 19.6589V17.7343H7.14453V19.6589V21.5836H13.7246V19.6589ZM7.14453 19.6589L9.02855 20.0525L10.2971 13.9792L8.41309 13.5857L6.52907 13.1922L5.26051 19.2654L7.14453 19.6589ZM8.41309 13.5857V15.5104H14.8994V13.5857V11.661H8.41309V13.5857ZM14.8994 13.5857L16.7876 13.9588L18.4321 5.63654L16.5439 5.26343L14.6558 4.89031L13.0112 13.2126L14.8994 13.5857ZM16.5439 5.26343V7.1881H22.5137V5.26343V3.33875H16.5439V5.26343ZM22.5137 5.26343L20.6255 4.8901L18.98 13.2124L20.8682 13.5857L22.7563 13.959L24.4018 5.63675L22.5137 5.26343Z" fill="black" mask="url(#path-1-outside-1_1470_5834)"/>
  <mask id="path-3-outside-2_1470_5834" maskUnits="userSpaceOnUse" x="0.932129" y="3.26343" width="41" height="40" fill="black">
    <rect fill="white" x="0.932129" y="3.26343" width="41" height="40"/>
    <path d="M19.5601 13.5847H26.0464L27.6919 5.26343H33.6138L31.9683 13.5847H38.5952L37.3267 19.6589H30.7466L29.73 24.908H23.77L24.2603 22.4675L24.3042 22.2458C24.572 20.9125 23.552 19.6699 22.187 19.6589H18.3384L17.647 23.2312L17.5679 23.6375C17.3093 24.9725 18.3386 26.2116 19.7065 26.2117H22.2612V26.2146H31.1909V26.2117H35.9634L34.6948 32.2849H28.2554L26.6108 40.655H20.4097V39.3484L22.3335 32.2849H15.8472L14.2026 40.655H7.94092V39.3484L9.92529 32.2849H2.93213V30.9089L4.47314 26.2117H8.59424V26.7156H17.5239V25.4089H11.2612L12.4165 19.6589H5.54541V18.4402L7.10498 13.5847H13.5913L15.2368 5.26343H21.2056L19.5601 13.5847Z"/>
  </mask>
  <path d="M19.5601 13.5847H26.0464L27.6919 5.26343H33.6138L31.9683 13.5847H38.5952L37.3267 19.6589H30.7466L29.73 24.908H23.77L24.2603 22.4675L24.3042 22.2458C24.572 20.9125 23.552 19.6699 22.187 19.6589H18.3384L17.647 23.2312L17.5679 23.6375C17.3093 24.9725 18.3386 26.2116 19.7065 26.2117H22.2612V26.2146H31.1909V26.2117H35.9634L34.6948 32.2849H28.2554L26.6108 40.655H20.4097V39.3484L22.3335 32.2849H15.8472L14.2026 40.655H7.94092V39.3484L9.92529 32.2849H2.93213V30.9089L4.47314 26.2117H8.59424V26.7156H17.5239V25.4089H11.2612L12.4165 19.6589H5.54541V18.4402L7.10498 13.5847H13.5913L15.2368 5.26343H21.2056L19.5601 13.5847Z" fill="#8D22F2"/>
  <path d="M19.5601 13.5847L17.6719 13.2113L17.2175 15.5094H19.5601V13.5847ZM26.0464 13.5847V15.5094H27.6277L27.9345 13.9581L26.0464 13.5847ZM27.6919 5.26343V3.33875H26.1105L25.8038 4.89006L27.6919 5.26343ZM33.6138 5.26343L35.5019 5.6368L35.9563 3.33875H33.6138V5.26343ZM31.9683 13.5847L30.0801 13.2113L29.6257 15.5094H31.9683V13.5847ZM38.5952 13.5847L40.4792 13.9782L40.9634 11.66H38.5952V13.5847ZM37.3267 19.6589V21.5836H38.8909L39.2107 20.0524L37.3267 19.6589ZM30.7466 19.6589V17.7343H29.1589L28.857 19.293L30.7466 19.6589ZM29.73 24.908V26.8326H31.3177L31.6195 25.2739L29.73 24.908ZM23.77 24.908L21.883 24.5289L21.4203 26.8326H23.77V24.908ZM24.2603 22.4675L26.1472 22.8466L26.1482 22.8418L24.2603 22.4675ZM24.3042 22.2458L22.4172 21.8668L22.4163 21.8716L24.3042 22.2458ZM22.187 19.6589L22.2024 17.7343L22.1947 17.7343H22.187V19.6589ZM18.3384 19.6589V17.7343H16.7505L16.4488 19.2932L18.3384 19.6589ZM17.647 23.2312L19.5362 23.5991L19.5366 23.5969L17.647 23.2312ZM17.5679 23.6375L15.6787 23.2696L15.6783 23.2715L17.5679 23.6375ZM19.7065 26.2117L19.7065 28.1363H19.7065V26.2117ZM22.2612 26.2117H24.1859V24.287H22.2612V26.2117ZM22.2612 26.2146H20.3366V28.1393H22.2612V26.2146ZM31.1909 26.2146V28.1393H33.1156V26.2146H31.1909ZM31.1909 26.2117V24.287H29.2662V26.2117H31.1909ZM35.9634 26.2117L37.8474 26.6052L38.3316 24.287H35.9634V26.2117ZM34.6948 32.2849V34.2096H36.259L36.5788 32.6784L34.6948 32.2849ZM28.2554 32.2849V30.3602H26.6721L26.3668 31.9139L28.2554 32.2849ZM26.6108 40.655V42.5797H28.1942L28.4994 41.0261L26.6108 40.655ZM20.4097 40.655H18.485V42.5797H20.4097V40.655ZM20.4097 39.3484L18.5526 38.8426L18.485 39.091V39.3484H20.4097ZM22.3335 32.2849L24.1905 32.7907L24.8525 30.3602H22.3335V32.2849ZM15.8472 32.2849V30.3602H14.2638L13.9586 31.9139L15.8472 32.2849ZM14.2026 40.655V42.5797H15.786L16.0912 41.0261L14.2026 40.655ZM7.94092 40.655H6.01624V42.5797H7.94092V40.655ZM7.94092 39.3484L6.08797 38.8278L6.01624 39.0832V39.3484H7.94092ZM9.92529 32.2849L11.7782 32.8055L12.4652 30.3602H9.92529V32.2849ZM2.93213 32.2849H1.00745V34.2096H2.93213V32.2849ZM2.93213 30.9089L1.10335 30.309L1.00745 30.6013V30.9089H2.93213ZM4.47314 26.2117V24.287H3.07896L2.64437 25.6117L4.47314 26.2117ZM8.59424 26.2117H10.5189V24.287H8.59424V26.2117ZM8.59424 26.7156H6.66956V28.6403H8.59424V26.7156ZM17.5239 26.7156V28.6403H19.4486V26.7156H17.5239ZM17.5239 25.4089H19.4486V23.4843H17.5239V25.4089ZM11.2612 25.4089L9.37426 25.0298L8.91139 27.3336H11.2612V25.4089ZM12.4165 19.6589L14.3035 20.0381L14.7663 17.7343H12.4165V19.6589ZM5.54541 19.6589H3.62073V21.5836H5.54541V19.6589ZM5.54541 18.4402L3.71294 17.8516L3.62073 18.1387V18.4402H5.54541ZM7.10498 13.5847V11.66H5.70166L5.27251 12.9961L7.10498 13.5847ZM13.5913 13.5847V15.5094H15.1727L15.4794 13.9581L13.5913 13.5847ZM15.2368 5.26343V3.33875H13.6555L13.3487 4.89006L15.2368 5.26343ZM21.2056 5.26343L23.0937 5.6368L23.5481 3.33875H21.2056V5.26343ZM19.5601 13.5847V15.5094H26.0464V13.5847V11.66H19.5601V13.5847ZM26.0464 13.5847L27.9345 13.9581L29.58 5.6368L27.6919 5.26343L25.8038 4.89006L24.1583 13.2113L26.0464 13.5847ZM27.6919 5.26343V7.1881H33.6138V5.26343V3.33875H27.6919V5.26343ZM33.6138 5.26343L31.7257 4.89006L30.0801 13.2113L31.9683 13.5847L33.8564 13.9581L35.5019 5.6368L33.6138 5.26343ZM31.9683 13.5847V15.5094H38.5952V13.5847V11.66H31.9683V13.5847ZM38.5952 13.5847L36.7112 13.1913L35.4426 19.2655L37.3267 19.6589L39.2107 20.0524L40.4792 13.9782L38.5952 13.5847ZM37.3267 19.6589V17.7343H30.7466V19.6589V21.5836H37.3267V19.6589ZM30.7466 19.6589L28.857 19.293L27.8404 24.542L29.73 24.908L31.6195 25.2739L32.6361 20.0249L30.7466 19.6589ZM29.73 24.908V22.9833H23.77V24.908V26.8326H29.73V24.908ZM23.77 24.908L25.657 25.287L26.1472 22.8466L24.2603 22.4675L22.3733 22.0885L21.883 24.5289L23.77 24.908ZM24.2603 22.4675L26.1482 22.8418L26.1921 22.6201L24.3042 22.2458L22.4163 21.8716L22.3723 22.0933L24.2603 22.4675ZM24.3042 22.2458L26.1912 22.6249C26.7003 20.0903 24.7599 17.7548 22.2024 17.7343L22.187 19.6589L22.1716 21.5836C22.3441 21.5849 22.4437 21.7348 22.4172 21.8668L24.3042 22.2458ZM22.187 19.6589V17.7343H18.3384V19.6589V21.5836H22.187V19.6589ZM18.3384 19.6589L16.4488 19.2932L15.7574 22.8655L17.647 23.2312L19.5366 23.5969L20.228 20.0247L18.3384 19.6589ZM17.647 23.2312L15.7578 22.8634L15.6787 23.2696L17.5679 23.6375L19.4571 24.0053L19.5362 23.5991L17.647 23.2312ZM17.5679 23.6375L15.6783 23.2715C15.187 25.808 17.1429 28.1363 19.7065 28.1363L19.7065 26.2117L19.7066 24.287C19.5343 24.287 19.4316 24.137 19.4574 24.0034L17.5679 23.6375ZM19.7065 26.2117V28.1363H22.2612V26.2117V24.287H19.7065V26.2117ZM22.2612 26.2117H20.3366V26.2146H22.2612H24.1859V26.2117H22.2612ZM22.2612 26.2146V28.1393H31.1909V26.2146V24.2899H22.2612V26.2146ZM31.1909 26.2146H33.1156V26.2117H31.1909H29.2662V26.2146H31.1909ZM31.1909 26.2117V28.1363H35.9634V26.2117V24.287H31.1909V26.2117ZM35.9634 26.2117L34.0794 25.8181L32.8108 31.8914L34.6948 32.2849L36.5788 32.6784L37.8474 26.6052L35.9634 26.2117ZM34.6948 32.2849V30.3602H28.2554V32.2849V34.2096H34.6948V32.2849ZM28.2554 32.2849L26.3668 31.9139L24.7223 40.284L26.6108 40.655L28.4994 41.0261L30.1439 32.656L28.2554 32.2849ZM26.6108 40.655V38.7304H20.4097V40.655V42.5797H26.6108V40.655ZM20.4097 40.655H22.3343V39.3484H20.4097H18.485V40.655H20.4097ZM20.4097 39.3484L22.2667 39.8542L24.1905 32.7907L22.3335 32.2849L20.4765 31.7791L18.5526 38.8426L20.4097 39.3484ZM22.3335 32.2849V30.3602H15.8472V32.2849V34.2096H22.3335V32.2849ZM15.8472 32.2849L13.9586 31.9139L12.3141 40.284L14.2026 40.655L16.0912 41.0261L17.7357 32.656L15.8472 32.2849ZM14.2026 40.655V38.7304H7.94092V40.655V42.5797H14.2026V40.655ZM7.94092 40.655H9.86559V39.3484H7.94092H6.01624V40.655H7.94092ZM7.94092 39.3484L9.79386 39.8689L11.7782 32.8055L9.92529 32.2849L8.07235 31.7644L6.08797 38.8278L7.94092 39.3484ZM9.92529 32.2849V30.3602H2.93213V32.2849V34.2096H9.92529V32.2849ZM2.93213 32.2849H4.85681V30.9089H2.93213H1.00745V32.2849H2.93213ZM2.93213 30.9089L4.76091 31.5089L6.30192 26.8116L4.47314 26.2117L2.64437 25.6117L1.10335 30.309L2.93213 30.9089ZM4.47314 26.2117V28.1363H8.59424V26.2117V24.287H4.47314V26.2117ZM8.59424 26.2117H6.66956V26.7156H8.59424H10.5189V26.2117H8.59424ZM8.59424 26.7156V28.6403H17.5239V26.7156V24.7909H8.59424V26.7156ZM17.5239 26.7156H19.4486V25.4089H17.5239H15.5992V26.7156H17.5239ZM17.5239 25.4089V23.4843H11.2612V25.4089V27.3336H17.5239V25.4089ZM11.2612 25.4089L13.1482 25.7881L14.3035 20.0381L12.4165 19.6589L10.5295 19.2798L9.37426 25.0298L11.2612 25.4089ZM12.4165 19.6589V17.7343H5.54541V19.6589V21.5836H12.4165V19.6589ZM5.54541 19.6589H7.47009V18.4402H5.54541H3.62073V19.6589H5.54541ZM5.54541 18.4402L7.37788 19.0288L8.93745 14.1733L7.10498 13.5847L5.27251 12.9961L3.71294 17.8516L5.54541 18.4402ZM7.10498 13.5847V15.5094H13.5913V13.5847V11.66H7.10498V13.5847ZM13.5913 13.5847L15.4794 13.9581L17.1249 5.6368L15.2368 5.26343L13.3487 4.89006L11.7032 13.2113L13.5913 13.5847ZM15.2368 5.26343V7.1881H21.2056V5.26343V3.33875H15.2368V5.26343ZM21.2056 5.26343L19.3175 4.89006L17.6719 13.2113L19.5601 13.5847L21.4482 13.9581L23.0937 5.6368L21.2056 5.26343Z" fill="black" mask="url(#path-3-outside-2_1470_5834)"/>
  <mask id="path-5-outside-3_1470_5834" maskUnits="userSpaceOnUse" x="1.20508" y="1.54102" width="39" height="38" fill="black">
    <rect fill="white" x="1.20508" y="1.54102" width="39" height="38"/>
    <path d="M17.6475 20.5088L17.5684 20.916C17.3101 22.2509 18.3393 23.4892 19.707 23.4893H22.2617V23.4932H31.1914V23.4893H35.9639L34.6953 29.5625H28.2559L26.6113 37.9326H20.6895L22.334 29.5625H15.8477L14.2031 37.9326H8.23438L9.92578 29.5625H3.20508L4.47363 23.4893H11.1006L12.1543 18.2441H18.0859L17.6475 20.5088ZM19.5605 10.8633H26.0469L27.6924 2.54102H33.6143L31.9688 10.8633H38.5957L37.3271 16.9365H30.7471L29.7305 22.1855H23.7705L24.2607 19.7451L24.3047 19.5234C24.5725 18.1895 23.5514 16.9463 22.1855 16.9365H18.3389V16.9375H12.417V16.9365H5.83691L7.10547 10.8633H13.5918L15.2373 2.54102H21.2061L19.5605 10.8633Z"/>
  </mask>
  <path d="M17.6475 20.5088L17.5684 20.916C17.3101 22.2509 18.3393 23.4892 19.707 23.4893H22.2617V23.4932H31.1914V23.4893H35.9639L34.6953 29.5625H28.2559L26.6113 37.9326H20.6895L22.334 29.5625H15.8477L14.2031 37.9326H8.23438L9.92578 29.5625H3.20508L4.47363 23.4893H11.1006L12.1543 18.2441H18.0859L17.6475 20.5088ZM19.5605 10.8633H26.0469L27.6924 2.54102H33.6143L31.9688 10.8633H38.5957L37.3271 16.9365H30.7471L29.7305 22.1855H23.7705L24.2607 19.7451L24.3047 19.5234C24.5725 18.1895 23.5514 16.9463 22.1855 16.9365H18.3389V16.9375H12.417V16.9365H5.83691L7.10547 10.8633H13.5918L15.2373 2.54102H21.2061L19.5605 10.8633Z" fill="white"/>
  <path d="M17.6475 20.5088L18.6291 20.6995L18.6292 20.6989L17.6475 20.5088ZM17.5684 20.916L16.5867 20.7253L16.5866 20.726L17.5684 20.916ZM19.707 23.4893L19.707 24.4893H19.707V23.4893ZM22.2617 23.4893H23.2617V22.4893H22.2617V23.4893ZM22.2617 23.4932H21.2617V24.4932H22.2617V23.4932ZM31.1914 23.4932V24.4932H32.1914V23.4932H31.1914ZM31.1914 23.4893V22.4893H30.1914V23.4893H31.1914ZM35.9639 23.4893L36.9427 23.6937L37.1943 22.4893H35.9639V23.4893ZM34.6953 29.5625V30.5625H35.508L35.6742 29.767L34.6953 29.5625ZM28.2559 29.5625V28.5625H27.4332L27.2746 29.3697L28.2559 29.5625ZM26.6113 37.9326V38.9326H27.434L27.5926 38.1254L26.6113 37.9326ZM20.6895 37.9326L19.7082 37.7398L19.4739 38.9326H20.6895V37.9326ZM22.334 29.5625L23.3152 29.7553L23.5496 28.5625H22.334V29.5625ZM15.8477 29.5625V28.5625H15.025L14.8664 29.3697L15.8477 29.5625ZM14.2031 37.9326V38.9326H15.0258L15.1844 38.1254L14.2031 37.9326ZM8.23438 37.9326L7.25419 37.7345L7.01208 38.9326H8.23438V37.9326ZM9.92578 29.5625L10.906 29.7606L11.1481 28.5625H9.92578V29.5625ZM3.20508 29.5625L2.2262 29.358L1.97462 30.5625H3.20508V29.5625ZM4.47363 23.4893V22.4893H3.66093L3.49476 23.2848L4.47363 23.4893ZM11.1006 23.4893V24.4893H11.9197L12.081 23.6862L11.1006 23.4893ZM12.1543 18.2441V17.2441H11.3352L11.1739 18.0472L12.1543 18.2441ZM18.0859 18.2441L19.0677 18.4342L19.2981 17.2441H18.0859V18.2441ZM19.5605 10.8633L18.5795 10.6693L18.3435 11.8633H19.5605V10.8633ZM26.0469 10.8633V11.8633H26.8685L27.0279 11.0573L26.0469 10.8633ZM27.6924 2.54102V1.54102H26.8707L26.7114 2.34705L27.6924 2.54102ZM33.6143 2.54102L34.5953 2.73498L34.8313 1.54102H33.6143V2.54102ZM31.9688 10.8633L30.9877 10.6693L30.7517 11.8633H31.9688V10.8633ZM38.5957 10.8633L39.5746 11.0677L39.8262 9.86328H38.5957V10.8633ZM37.3271 16.9365V17.9365H38.1399L38.306 17.141L37.3271 16.9365ZM30.7471 16.9365V15.9365H29.9222L29.7653 16.7464L30.7471 16.9365ZM29.7305 22.1855V23.1855H30.5554L30.7122 22.3757L29.7305 22.1855ZM23.7705 22.1855L22.7901 21.9886L22.5497 23.1855H23.7705V22.1855ZM24.2607 19.7451L25.2412 19.9421L25.2417 19.9396L24.2607 19.7451ZM24.3047 19.5234L23.3242 19.3266L23.3238 19.329L24.3047 19.5234ZM22.1855 16.9365L22.1927 15.9365H22.1855V16.9365ZM18.3389 16.9365V15.9365H17.3389V16.9365H18.3389ZM18.3389 16.9375V17.9375H19.3389V16.9375H18.3389ZM12.417 16.9375H11.417V17.9375H12.417V16.9375ZM12.417 16.9365H13.417V15.9365H12.417V16.9365ZM5.83691 16.9365L4.85804 16.7321L4.60646 17.9365H5.83691V16.9365ZM7.10547 10.8633V9.86328H6.29276L6.12659 10.6588L7.10547 10.8633ZM13.5918 10.8633V11.8633H14.4134L14.5728 11.0573L13.5918 10.8633ZM15.2373 2.54102V1.54102H14.4157L14.2563 2.34705L15.2373 2.54102ZM21.2061 2.54102L22.1871 2.73498L22.4231 1.54102H21.2061V2.54102ZM17.6475 20.5088L16.6658 20.3181L16.5867 20.7253L17.5684 20.916L18.55 21.1067L18.6291 20.6995L17.6475 20.5088ZM17.5684 20.916L16.5866 20.726C16.2074 22.6854 17.7183 24.4892 19.707 24.4893L19.707 23.4893L19.7071 22.4893C18.9602 22.4892 18.4127 21.8164 18.5501 21.106L17.5684 20.916ZM19.707 23.4893V24.4893H22.2617V23.4893V22.4893H19.707V23.4893ZM22.2617 23.4893H21.2617V23.4932H22.2617H23.2617V23.4893H22.2617ZM22.2617 23.4932V24.4932H31.1914V23.4932V22.4932H22.2617V23.4932ZM31.1914 23.4932H32.1914V23.4893H31.1914H30.1914V23.4932H31.1914ZM31.1914 23.4893V24.4893H35.9639V23.4893V22.4893H31.1914V23.4893ZM35.9639 23.4893L34.985 23.2848L33.7164 29.358L34.6953 29.5625L35.6742 29.767L36.9427 23.6937L35.9639 23.4893ZM34.6953 29.5625V28.5625H28.2559V29.5625V30.5625H34.6953V29.5625ZM28.2559 29.5625L27.2746 29.3697L25.6301 37.7398L26.6113 37.9326L27.5926 38.1254L29.2371 29.7553L28.2559 29.5625ZM26.6113 37.9326V36.9326H20.6895V37.9326V38.9326H26.6113V37.9326ZM20.6895 37.9326L21.6707 38.1254L23.3152 29.7553L22.334 29.5625L21.3527 29.3697L19.7082 37.7398L20.6895 37.9326ZM22.334 29.5625V28.5625H15.8477V29.5625V30.5625H22.334V29.5625ZM15.8477 29.5625L14.8664 29.3697L13.2219 37.7398L14.2031 37.9326L15.1844 38.1254L16.8289 29.7553L15.8477 29.5625ZM14.2031 37.9326V36.9326H8.23438V37.9326V38.9326H14.2031V37.9326ZM8.23438 37.9326L9.21456 38.1307L10.906 29.7606L9.92578 29.5625L8.94559 29.3644L7.25419 37.7345L8.23438 37.9326ZM9.92578 29.5625V28.5625H3.20508V29.5625V30.5625H9.92578V29.5625ZM3.20508 29.5625L4.18395 29.767L5.45251 23.6937L4.47363 23.4893L3.49476 23.2848L2.2262 29.358L3.20508 29.5625ZM4.47363 23.4893V24.4893H11.1006V23.4893V22.4893H4.47363V23.4893ZM11.1006 23.4893L12.081 23.6862L13.1347 18.4411L12.1543 18.2441L11.1739 18.0472L10.1202 23.2923L11.1006 23.4893ZM12.1543 18.2441V19.2441H18.0859V18.2441V17.2441H12.1543V18.2441ZM18.0859 18.2441L17.1042 18.0541L16.6657 20.3187L17.6475 20.5088L18.6292 20.6989L19.0677 18.4342L18.0859 18.2441ZM19.5605 10.8633V11.8633H26.0469V10.8633V9.86328H19.5605V10.8633ZM26.0469 10.8633L27.0279 11.0573L28.6734 2.73498L27.6924 2.54102L26.7114 2.34705L25.0659 10.6693L26.0469 10.8633ZM27.6924 2.54102V3.54102H33.6143V2.54102V1.54102H27.6924V2.54102ZM33.6143 2.54102L32.6332 2.34705L30.9877 10.6693L31.9688 10.8633L32.9498 11.0573L34.5953 2.73498L33.6143 2.54102ZM31.9688 10.8633V11.8633H38.5957V10.8633V9.86328H31.9688V10.8633ZM38.5957 10.8633L37.6168 10.6588L36.3483 16.7321L37.3271 16.9365L38.306 17.141L39.5746 11.0677L38.5957 10.8633ZM37.3271 16.9365V15.9365H30.7471V16.9365V17.9365H37.3271V16.9365ZM30.7471 16.9365L29.7653 16.7464L28.7487 21.9954L29.7305 22.1855L30.7122 22.3757L31.7288 17.1267L30.7471 16.9365ZM29.7305 22.1855V21.1855H23.7705V22.1855V23.1855H29.7305V22.1855ZM23.7705 22.1855L24.7509 22.3825L25.2412 19.9421L24.2607 19.7451L23.2803 19.5482L22.7901 21.9886L23.7705 22.1855ZM24.2607 19.7451L25.2417 19.9396L25.2856 19.7179L24.3047 19.5234L23.3238 19.329L23.2798 19.5507L24.2607 19.7451ZM24.3047 19.5234L25.2851 19.7203C25.6783 17.7621 24.1787 15.9507 22.1927 15.9365L22.1855 16.9365L22.1784 17.9365C22.9242 17.9418 23.4667 18.617 23.3243 19.3266L24.3047 19.5234ZM22.1855 16.9365V15.9365H18.3389V16.9365V17.9365H22.1855V16.9365ZM18.3389 16.9365H17.3389V16.9375H18.3389H19.3389V16.9365H18.3389ZM18.3389 16.9375V15.9375H12.417V16.9375V17.9375H18.3389V16.9375ZM12.417 16.9375H13.417V16.9365H12.417H11.417V16.9375H12.417ZM12.417 16.9365V15.9365H5.83691V16.9365V17.9365H12.417V16.9365ZM5.83691 16.9365L6.81579 17.141L8.08434 11.0677L7.10547 10.8633L6.12659 10.6588L4.85804 16.7321L5.83691 16.9365ZM7.10547 10.8633V11.8633H13.5918V10.8633V9.86328H7.10547V10.8633ZM13.5918 10.8633L14.5728 11.0573L16.2183 2.73498L15.2373 2.54102L14.2563 2.34705L12.6108 10.6693L13.5918 10.8633ZM15.2373 2.54102V3.54102H21.2061V2.54102V1.54102H15.2373V2.54102ZM21.2061 2.54102L20.225 2.34705L18.5795 10.6693L19.5605 10.8633L20.5416 11.0573L22.1871 2.73498L21.2061 2.54102Z" fill="black" mask="url(#path-5-outside-3_1470_5834)"/>
</svg>