<svg width="1440" height="96" viewBox="0 0 1440 96" fill="none" xmlns="http://www.w3.org/2000/svg">
<g filter="url(#filter0_d_1450_4631)">
<rect width="1440" height="90" fill="#FAFAFA"/>
<mask id="path-1-outside-1_1450_4631" maskUnits="userSpaceOnUse" x="102.036" y="24.8756" width="45" height="44" fill="black">
<rect fill="white" x="102.036" y="24.8756" width="45" height="44"/>
<path d="M123.295 36.1656H130.535L132.371 26.8756H138.981L137.146 36.1656H144.543L143.127 42.9449H135.781L134.646 48.8053H127.994L128.591 45.8326C128.888 44.3493 127.757 42.9659 126.241 42.9449H121.931L121.158 46.9332L121.07 47.3873C120.784 48.8683 121.917 50.2426 123.43 50.2594H126.309V50.2633H136.277V50.2594H141.605L140.188 57.0397H133.001L131.164 66.3824H124.554L126.39 57.0397H119.149L117.313 66.3824H110.65L112.539 57.0397H105.036L106.453 50.2594H111.054V50.8229H121.021V49.3639H114.03L115.32 42.9449H107.975L109.392 36.1656H116.632L118.468 26.8756H125.131L123.295 36.1656Z"/>
</mask>
<path d="M123.295 36.1656H130.535L132.371 26.8756H138.981L137.146 36.1656H144.543L143.127 42.9449H135.781L134.646 48.8053H127.994L128.591 45.8326C128.888 44.3493 127.757 42.9659 126.241 42.9449H121.931L121.158 46.9332L121.07 47.3873C120.784 48.8683 121.917 50.2426 123.43 50.2594H126.309V50.2633H136.277V50.2594H141.605L140.188 57.0397H133.001L131.164 66.3824H124.554L126.39 57.0397H119.149L117.313 66.3824H110.65L112.539 57.0397H105.036L106.453 50.2594H111.054V50.8229H121.021V49.3639H114.03L115.32 42.9449H107.975L109.392 36.1656H116.632L118.468 26.8756H125.131L123.295 36.1656Z" fill="black"/>
<path d="M123.295 36.1656L121.407 35.7925L120.953 38.0903H123.295V36.1656ZM130.535 36.1656V38.0903H132.117L132.423 36.5388L130.535 36.1656ZM132.371 26.8756V24.9509H130.79L130.483 26.5025L132.371 26.8756ZM138.981 26.8756L140.87 27.2488L141.324 24.9509H138.981V26.8756ZM137.146 36.1656L135.257 35.7925L134.803 38.0903H137.146V36.1656ZM144.543 36.1656L146.427 36.5592L146.911 34.241H144.543V36.1656ZM143.127 42.9449V44.8696H144.691L145.011 43.3385L143.127 42.9449ZM135.781 42.9449V41.0203H134.194L133.892 42.5791L135.781 42.9449ZM134.646 48.8053V50.73H136.234L136.536 49.1712L134.646 48.8053ZM127.994 48.8053L126.107 48.4265L125.645 50.73H127.994V48.8053ZM128.591 45.8326L130.478 46.2114L130.478 46.2113L128.591 45.8326ZM126.241 42.9449L126.268 41.0205L126.255 41.0203H126.241V42.9449ZM121.931 42.9449V41.0203H120.343L120.041 42.579L121.931 42.9449ZM121.158 46.9332L119.269 46.5673L119.269 46.5675L121.158 46.9332ZM121.07 47.3873L119.181 47.0216L119.181 47.0217L121.07 47.3873ZM123.43 50.2594L123.408 52.184L123.419 52.1841H123.43V50.2594ZM126.309 50.2594H128.233V48.3347H126.309V50.2594ZM126.309 50.2633H124.384V52.188H126.309V50.2633ZM136.277 50.2633V52.188H138.202V50.2633H136.277ZM136.277 50.2594V48.3347H134.353V50.2594H136.277ZM141.605 50.2594L143.489 50.6531L143.974 48.3347H141.605V50.2594ZM140.188 57.0397V58.9644H141.753L142.072 57.4334L140.188 57.0397ZM133.001 57.0397V55.115H131.418L131.112 56.6684L133.001 57.0397ZM131.164 66.3824V68.3071H132.747L133.053 66.7538L131.164 66.3824ZM124.554 66.3824L122.665 66.0113L122.214 68.3071H124.554V66.3824ZM126.39 57.0397L128.278 57.4108L128.729 55.115H126.39V57.0397ZM119.149 57.0397V55.115H117.566L117.261 56.6686L119.149 57.0397ZM117.313 66.3824V68.3071H118.897L119.202 66.7536L117.313 66.3824ZM110.65 66.3824L108.764 66.0011L108.298 68.3071H110.65V66.3824ZM112.539 57.0397L114.426 57.421L114.892 55.115H112.539V57.0397ZM105.036 57.0397L103.152 56.6459L102.668 58.9644H105.036V57.0397ZM106.453 50.2594V48.3347H104.889L104.569 49.8657L106.453 50.2594ZM111.054 50.2594H112.978V48.3347H111.054V50.2594ZM111.054 50.8229H109.129V52.7476H111.054V50.8229ZM121.021 50.8229V52.7476H122.946V50.8229H121.021ZM121.021 49.3639H122.946V47.4392H121.021V49.3639ZM114.03 49.3639L112.143 48.9847L111.68 51.2886H114.03V49.3639ZM115.32 42.9449L117.207 43.3242L117.67 41.0203H115.32V42.9449ZM107.975 42.9449L106.091 42.5512L105.606 44.8696H107.975V42.9449ZM109.392 36.1656V34.241H107.828L107.508 35.7719L109.392 36.1656ZM116.632 36.1656V38.0903H118.213L118.52 36.5388L116.632 36.1656ZM118.468 26.8756V24.9509H116.886L116.58 26.5025L118.468 26.8756ZM125.131 26.8756L127.019 27.2488L127.473 24.9509H125.131V26.8756ZM123.295 36.1656V38.0903H130.535V36.1656V34.241H123.295V36.1656ZM130.535 36.1656L132.423 36.5388L134.259 27.2488L132.371 26.8756L130.483 26.5025L128.647 35.7925L130.535 36.1656ZM132.371 26.8756V28.8003H138.981V26.8756V24.9509H132.371V26.8756ZM138.981 26.8756L137.093 26.5025L135.257 35.7925L137.146 36.1656L139.034 36.5388L140.87 27.2488L138.981 26.8756ZM137.146 36.1656V38.0903H144.543V36.1656V34.241H137.146V36.1656ZM144.543 36.1656L142.659 35.7721L141.243 42.5514L143.127 42.9449L145.011 43.3385L146.427 36.5592L144.543 36.1656ZM143.127 42.9449V41.0203H135.781V42.9449V44.8696H143.127V42.9449ZM135.781 42.9449L133.892 42.5791L132.757 48.4394L134.646 48.8053L136.536 49.1712L137.671 43.3108L135.781 42.9449ZM134.646 48.8053V46.8806H127.994V48.8053V50.73H134.646V48.8053ZM127.994 48.8053L129.881 49.1841L130.478 46.2114L128.591 45.8326L126.704 45.4539L126.107 48.4265L127.994 48.8053ZM128.591 45.8326L130.478 46.2113C131.016 43.5302 128.971 41.0579 126.268 41.0205L126.241 42.9449L126.215 44.8694C126.544 44.874 126.761 45.1683 126.704 45.454L128.591 45.8326ZM126.241 42.9449V41.0203H121.931V42.9449V44.8696H126.241V42.9449ZM121.931 42.9449L120.041 42.579L119.269 46.5673L121.158 46.9332L123.048 47.2992L123.82 43.3109L121.931 42.9449ZM121.158 46.9332L119.269 46.5675L119.181 47.0216L121.07 47.3873L122.96 47.7531L123.048 47.299L121.158 46.9332ZM121.07 47.3873L119.181 47.0217C118.663 49.6975 120.711 52.154 123.408 52.184L123.43 50.2594L123.451 48.3348C123.123 48.3312 122.905 48.0392 122.96 47.7529L121.07 47.3873ZM123.43 50.2594V52.1841H126.309V50.2594V48.3347H123.43V50.2594ZM126.309 50.2594H124.384V50.2633H126.309H128.233V50.2594H126.309ZM126.309 50.2633V52.188H136.277V50.2633V48.3386H126.309V50.2633ZM136.277 50.2633H138.202V50.2594H136.277H134.353V50.2633H136.277ZM136.277 50.2594V52.1841H141.605V50.2594V48.3347H136.277V50.2594ZM141.605 50.2594L139.721 49.8657L138.305 56.6459L140.188 57.0397L142.072 57.4334L143.489 50.6531L141.605 50.2594ZM140.188 57.0397V55.115H133.001V57.0397V58.9644H140.188V57.0397ZM133.001 57.0397L131.112 56.6684L129.276 66.0111L131.164 66.3824L133.053 66.7538L134.889 57.411L133.001 57.0397ZM131.164 66.3824V64.4578H124.554V66.3824V68.3071H131.164V66.3824ZM124.554 66.3824L126.442 66.7536L128.278 57.4108L126.39 57.0397L124.501 56.6686L122.665 66.0113L124.554 66.3824ZM126.39 57.0397V55.115H119.149V57.0397V58.9644H126.39V57.0397ZM119.149 57.0397L117.261 56.6686L115.425 66.0113L117.313 66.3824L119.202 66.7536L121.038 57.4108L119.149 57.0397ZM117.313 66.3824V64.4578H110.65V66.3824V68.3071H117.313V66.3824ZM110.65 66.3824L112.537 66.7638L114.426 57.421L112.539 57.0397L110.653 56.6583L108.764 66.0011L110.65 66.3824ZM112.539 57.0397V55.115H105.036V57.0397V58.9644H112.539V57.0397ZM105.036 57.0397L106.92 57.4334L108.337 50.6531L106.453 50.2594L104.569 49.8657L103.152 56.6459L105.036 57.0397ZM106.453 50.2594V52.1841H111.054V50.2594V48.3347H106.453V50.2594ZM111.054 50.2594H109.129V50.8229H111.054H112.978V50.2594H111.054ZM111.054 50.8229V52.7476H121.021V50.8229V48.8982H111.054V50.8229ZM121.021 50.8229H122.946V49.3639H121.021H119.097V50.8229H121.021ZM121.021 49.3639V47.4392H114.03V49.3639V51.2886H121.021V49.3639ZM114.03 49.3639L115.917 49.7431L117.207 43.3242L115.32 42.9449L113.433 42.5657L112.143 48.9847L114.03 49.3639ZM115.32 42.9449V41.0203H107.975V42.9449V44.8696H115.32V42.9449ZM107.975 42.9449L109.859 43.3387L111.276 36.5594L109.392 36.1656L107.508 35.7719L106.091 42.5512L107.975 42.9449ZM109.392 36.1656V38.0903H116.632V36.1656V34.241H109.392V36.1656ZM116.632 36.1656L118.52 36.5388L120.356 27.2488L118.468 26.8756L116.58 26.5025L114.744 35.7925L116.632 36.1656ZM118.468 26.8756V28.8003H125.131V26.8756V24.9509H118.468V26.8756ZM125.131 26.8756L123.243 26.5025L121.407 35.7925L123.295 36.1656L125.183 36.5388L127.019 27.2488L125.131 26.8756Z" fill="black" mask="url(#path-1-outside-1_1450_4631)"/>
<mask id="path-3-outside-2_1450_4631" maskUnits="userSpaceOnUse" x="101.273" y="24.8755" width="45" height="44" fill="black">
<rect fill="white" x="101.273" y="24.8755" width="45" height="44"/>
<path d="M121.834 36.1646H129.075L130.912 26.8755H137.522L135.686 36.1646H143.083L141.667 42.9448H134.322L133.187 48.8042H126.534L127.082 46.0796H127.081L127.13 45.8325C127.428 44.3491 126.298 42.966 124.782 42.9448H120.471L119.699 46.9331L119.611 47.3862C119.322 48.8764 120.471 50.259 121.998 50.2593H124.849V50.2632H134.817V50.2593H140.145L138.729 57.0396H131.541L129.705 66.3823H122.783V64.9233L124.93 57.0396H117.69L115.854 66.3823H108.865V64.9233L111.08 57.0396H103.273V55.5024L104.994 50.2593H109.594V50.8228H119.562V49.3638H112.571L113.86 42.9448H106.19V41.5845L107.931 36.1646H115.171L117.008 26.8755H123.671L121.834 36.1646Z"/>
</mask>
<path d="M121.834 36.1646H129.075L130.912 26.8755H137.522L135.686 36.1646H143.083L141.667 42.9448H134.322L133.187 48.8042H126.534L127.082 46.0796H127.081L127.13 45.8325C127.428 44.3491 126.298 42.966 124.782 42.9448H120.471L119.699 46.9331L119.611 47.3862C119.322 48.8764 120.471 50.259 121.998 50.2593H124.849V50.2632H134.817V50.2593H140.145L138.729 57.0396H131.541L129.705 66.3823H122.783V64.9233L124.93 57.0396H117.69L115.854 66.3823H108.865V64.9233L111.08 57.0396H103.273V55.5024L104.994 50.2593H109.594V50.8228H119.562V49.3638H112.571L113.86 42.9448H106.19V41.5845L107.931 36.1646H115.171L117.008 26.8755H123.671L121.834 36.1646Z" fill="#8D22F2"/>
<path d="M121.834 36.1646L119.946 35.7912L119.492 38.0892H121.834V36.1646ZM129.075 36.1646V38.0892H130.656L130.963 36.5379L129.075 36.1646ZM130.912 26.8755V24.9508H129.33L129.024 26.5021L130.912 26.8755ZM137.522 26.8755L139.41 27.2487L139.864 24.9508H137.522V26.8755ZM135.686 36.1646L133.798 35.7914L133.344 38.0892H135.686V36.1646ZM143.083 36.1646L144.967 36.5583L145.452 34.2399H143.083V36.1646ZM141.667 42.9448V44.8695H143.231L143.55 43.3386L141.667 42.9448ZM134.322 42.9448V41.0201H132.734L132.432 42.5789L134.322 42.9448ZM133.187 48.8042V50.7289H134.775L135.077 49.1701L133.187 48.8042ZM126.534 48.8042L124.647 48.4248L124.183 50.7289H126.534V48.8042ZM127.082 46.0796L128.968 46.459L129.432 44.1549H127.082V46.0796ZM127.081 46.0796L125.194 45.6993L124.729 48.0043H127.081V46.0796ZM127.13 45.8325L129.017 46.2128L129.017 46.2114L127.13 45.8325ZM124.782 42.9448L124.809 41.0203L124.795 41.0201H124.782V42.9448ZM120.471 42.9448V41.0201H118.884L118.582 42.5788L120.471 42.9448ZM119.699 46.9331L121.588 47.2996L121.588 47.2991L119.699 46.9331ZM119.611 47.3862L117.721 47.0197L117.721 47.0203L119.611 47.3862ZM121.998 50.2593L121.997 52.184H121.998V50.2593ZM124.849 50.2593H126.774V48.3346H124.849V50.2593ZM124.849 50.2632H122.924V52.1879H124.849V50.2632ZM134.817 50.2632V52.1879H136.742V50.2632H134.817ZM134.817 50.2593V48.3346H132.892V50.2593H134.817ZM140.145 50.2593L142.029 50.6527L142.513 48.3346H140.145V50.2593ZM138.729 57.0396V58.9642H140.293L140.613 57.433L138.729 57.0396ZM131.541 57.0396V55.1149H129.957L129.652 56.6684L131.541 57.0396ZM129.705 66.3823V68.307H131.288L131.593 66.7534L129.705 66.3823ZM122.783 66.3823H120.858V68.307H122.783V66.3823ZM122.783 64.9233L120.926 64.4175L120.858 64.6659V64.9233H122.783ZM124.93 57.0396L126.787 57.5454L127.449 55.1149H124.93V57.0396ZM117.69 57.0396V55.1149H116.107L115.801 56.6684L117.69 57.0396ZM115.854 66.3823V68.307H117.437L117.743 66.7534L115.854 66.3823ZM108.865 66.3823H106.94V68.307H108.865V66.3823ZM108.865 64.9233L107.012 64.4028L106.94 64.6581V64.9233H108.865ZM111.08 57.0396L112.933 57.5601L113.619 55.1149H111.08V57.0396ZM103.273 57.0396H101.348V58.9642H103.273V57.0396ZM103.273 55.5024L101.444 54.9023L101.348 55.1947V55.5024H103.273ZM104.994 50.2593V48.3346H103.6L103.165 49.6591L104.994 50.2593ZM109.594 50.2593H111.519V48.3346H109.594V50.2593ZM109.594 50.8228H107.67V52.7474H109.594V50.8228ZM119.562 50.8228V52.7474H121.487V50.8228H119.562ZM119.562 49.3638H121.487V47.4391H119.562V49.3638ZM112.571 49.3638L110.684 48.9848L110.221 51.2884H112.571V49.3638ZM113.86 42.9448L115.747 43.3238L116.209 41.0201H113.86V42.9448ZM106.19 42.9448H104.265V44.8695H106.19V42.9448ZM106.19 41.5845L104.358 40.9958L104.265 41.2829V41.5845H106.19ZM107.931 36.1646V34.2399H106.528L106.099 35.5759L107.931 36.1646ZM115.171 36.1646V38.0892H116.753L117.06 36.5379L115.171 36.1646ZM117.008 26.8755V24.9508H115.427L115.12 26.5021L117.008 26.8755ZM123.671 26.8755L125.559 27.2489L126.014 24.9508H123.671V26.8755ZM121.834 36.1646V38.0892H129.075V36.1646V34.2399H121.834V36.1646ZM129.075 36.1646L130.963 36.5379L132.8 27.2489L130.912 26.8755L129.024 26.5021L127.187 35.7912L129.075 36.1646ZM130.912 26.8755V28.8002H137.522V26.8755V24.9508H130.912V26.8755ZM137.522 26.8755L135.634 26.5023L133.798 35.7914L135.686 36.1646L137.574 36.5377L139.41 27.2487L137.522 26.8755ZM135.686 36.1646V38.0892H143.083V36.1646V34.2399H135.686V36.1646ZM143.083 36.1646L141.2 35.7708L139.783 42.5511L141.667 42.9448L143.55 43.3386L144.967 36.5583L143.083 36.1646ZM141.667 42.9448V41.0201H134.322V42.9448V44.8695H141.667V42.9448ZM134.322 42.9448L132.432 42.5789L131.297 48.4383L133.187 48.8042L135.077 49.1701L136.211 43.3108L134.322 42.9448ZM133.187 48.8042V46.8795H126.534V48.8042V50.7289H133.187V48.8042ZM126.534 48.8042L128.421 49.1836L128.968 46.459L127.082 46.0796L125.195 45.7002L124.647 48.4248L126.534 48.8042ZM127.082 46.0796V44.1549H127.081V46.0796V48.0043H127.082V46.0796ZM127.081 46.0796L128.967 46.4599L129.017 46.2128L127.13 45.8325L125.244 45.4522L125.194 45.6993L127.081 46.0796ZM127.13 45.8325L129.017 46.2114C129.556 43.5307 127.512 41.058 124.809 41.0203L124.782 42.9448L124.755 44.8693C125.084 44.8739 125.301 45.1675 125.243 45.4536L127.13 45.8325ZM124.782 42.9448V41.0201H120.471V42.9448V44.8695H124.782V42.9448ZM120.471 42.9448L118.582 42.5788L117.809 46.5671L119.699 46.9331L121.588 47.2991L122.361 43.3108L120.471 42.9448ZM119.699 46.9331L117.809 46.5666L117.721 47.0197L119.611 47.3862L121.5 47.7527L121.588 47.2996L119.699 46.9331ZM119.611 47.3862L117.721 47.0203C117.2 49.712 119.275 52.1835 121.997 52.184L121.998 50.2593L121.998 48.3346C121.666 48.3345 121.444 48.0409 121.5 47.7522L119.611 47.3862ZM121.998 50.2593V52.184H124.849V50.2593V48.3346H121.998V50.2593ZM124.849 50.2593H122.924V50.2632H124.849H126.774V50.2593H124.849ZM124.849 50.2632V52.1879H134.817V50.2632V48.3385H124.849V50.2632ZM134.817 50.2632H136.742V50.2593H134.817H132.892V50.2632H134.817ZM134.817 50.2593V52.184H140.145V50.2593V48.3346H134.817V50.2593ZM140.145 50.2593L138.261 49.8658L136.845 56.6461L138.729 57.0396L140.613 57.433L142.029 50.6527L140.145 50.2593ZM138.729 57.0396V55.1149H131.541V57.0396V58.9642H138.729V57.0396ZM131.541 57.0396L129.652 56.6684L127.816 66.0112L129.705 66.3823L131.593 66.7534L133.429 57.4107L131.541 57.0396ZM129.705 66.3823V64.4576H122.783V66.3823V68.307H129.705V66.3823ZM122.783 66.3823H124.707V64.9233H122.783H120.858V66.3823H122.783ZM122.783 64.9233L124.64 65.4292L126.787 57.5454L124.93 57.0396L123.073 56.5337L120.926 64.4175L122.783 64.9233ZM124.93 57.0396V55.1149H117.69V57.0396V58.9642H124.93V57.0396ZM117.69 57.0396L115.801 56.6684L113.965 66.0112L115.854 66.3823L117.743 66.7534L119.578 57.4107L117.69 57.0396ZM115.854 66.3823V64.4576H108.865V66.3823V68.307H115.854V66.3823ZM108.865 66.3823H110.789V64.9233H108.865H106.94V66.3823H108.865ZM108.865 64.9233L110.718 65.4439L112.933 57.5601L111.08 57.0396L109.227 56.519L107.012 64.4028L108.865 64.9233ZM111.08 57.0396V55.1149H103.273V57.0396V58.9642H111.08V57.0396ZM103.273 57.0396H105.198V55.5024H103.273H101.348V57.0396H103.273ZM103.273 55.5024L105.102 56.1026L106.822 50.8594L104.994 50.2593L103.165 49.6591L101.444 54.9023L103.273 55.5024ZM104.994 50.2593V52.184H109.594V50.2593V48.3346H104.994V50.2593ZM109.594 50.2593H107.67V50.8228H109.594H111.519V50.2593H109.594ZM109.594 50.8228V52.7474H119.562V50.8228V48.8981H109.594V50.8228ZM119.562 50.8228H121.487V49.3638H119.562H117.637V50.8228H119.562ZM119.562 49.3638V47.4391H112.571V49.3638V51.2884H119.562V49.3638ZM112.571 49.3638L114.458 49.7427L115.747 43.3238L113.86 42.9448L111.973 42.5659L110.684 48.9848L112.571 49.3638ZM113.86 42.9448V41.0201H106.19V42.9448V44.8695H113.86V42.9448ZM106.19 42.9448H108.115V41.5845H106.19H104.265V42.9448H106.19ZM106.19 41.5845L108.022 42.1732L109.764 36.7532L107.931 36.1646L106.099 35.5759L104.358 40.9958L106.19 41.5845ZM107.931 36.1646V38.0892H115.171V36.1646V34.2399H107.931V36.1646ZM115.171 36.1646L117.06 36.5379L118.896 27.2489L117.008 26.8755L115.12 26.5021L113.283 35.7912L115.171 36.1646ZM117.008 26.8755V28.8002H123.671V26.8755V24.9508H117.008V26.8755ZM123.671 26.8755L121.783 26.5021L119.946 35.7912L121.834 36.1646L123.723 36.5379L125.559 27.2489L123.671 26.8755Z" fill="black" mask="url(#path-3-outside-2_1450_4631)"/>
<mask id="path-5-outside-3_1450_4631" maskUnits="userSpaceOnUse" x="101.578" y="22.8367" width="43" height="42" fill="black">
<rect fill="white" x="101.578" y="22.8367" width="43" height="42"/>
<path d="M119.608 44.363C119.33 45.8475 120.477 47.2204 121.999 47.2205H124.85V47.2244H134.818V47.2205H140.146L138.729 54.0007H131.542L129.706 63.3435H123.094L124.931 54.0007H117.691L115.854 63.3435H109.191L111.08 54.0007H103.578L104.994 47.2205H112.392L113.568 41.365H120.189L119.608 44.363ZM121.836 33.1267H129.076L130.912 23.8367H137.523L135.686 33.1267H143.084L141.668 39.906H134.322L133.187 45.7664H126.535L127.132 42.7937C127.429 41.3105 126.299 39.9274 124.783 39.906H120.471V39.907H113.861V39.906H106.515L107.932 33.1267H115.173L117.009 23.8367H123.672L121.836 33.1267Z"/>
</mask>
<path d="M119.608 44.363C119.33 45.8475 120.477 47.2204 121.999 47.2205H124.85V47.2244H134.818V47.2205H140.146L138.729 54.0007H131.542L129.706 63.3435H123.094L124.931 54.0007H117.691L115.854 63.3435H109.191L111.08 54.0007H103.578L104.994 47.2205H112.392L113.568 41.365H120.189L119.608 44.363ZM121.836 33.1267H129.076L130.912 23.8367H137.523L135.686 33.1267H143.084L141.668 39.906H134.322L133.187 45.7664H126.535L127.132 42.7937C127.429 41.3105 126.299 39.9274 124.783 39.906H120.471V39.907H113.861V39.906H106.515L107.932 33.1267H115.173L117.009 23.8367H123.672L121.836 33.1267Z" fill="white"/>
<path d="M119.608 44.363L118.626 44.1728L118.625 44.179L119.608 44.363ZM121.999 47.2205L121.999 48.2205H121.999V47.2205ZM124.85 47.2205H125.85V46.2205H124.85V47.2205ZM124.85 47.2244H123.85V48.2244H124.85V47.2244ZM134.818 47.2244V48.2244H135.818V47.2244H134.818ZM134.818 47.2205V46.2205H133.818V47.2205H134.818ZM140.146 47.2205L141.125 47.425L141.377 46.2205H140.146V47.2205ZM138.729 54.0007V55.0007H139.542L139.708 54.2053L138.729 54.0007ZM131.542 54.0007V53.0007H130.719L130.561 53.8079L131.542 54.0007ZM129.706 63.3435V64.3435H130.528L130.687 63.5363L129.706 63.3435ZM123.094 63.3435L122.113 63.1506L121.879 64.3435H123.094V63.3435ZM124.931 54.0007L125.913 54.1937L126.147 53.0007H124.931V54.0007ZM117.691 54.0007V53.0007H116.869L116.71 53.8078L117.691 54.0007ZM115.854 63.3435V64.3435H116.677L116.835 63.5364L115.854 63.3435ZM109.191 63.3435L108.211 63.1454L107.969 64.3435H109.191V63.3435ZM111.08 54.0007L112.06 54.1989L112.302 53.0007H111.08V54.0007ZM103.578 54.0007L102.599 53.7963L102.347 55.0007H103.578V54.0007ZM104.994 47.2205V46.2205H104.181L104.015 47.016L104.994 47.2205ZM112.392 47.2205V48.2205H113.211L113.373 47.4173L112.392 47.2205ZM113.568 41.365V40.365H112.749L112.588 41.1681L113.568 41.365ZM120.189 41.365L121.171 41.5553L121.402 40.365H120.189V41.365ZM121.836 33.1267L120.855 32.9328L120.619 34.1267H121.836V33.1267ZM129.076 33.1267V34.1267H129.898L130.057 33.3206L129.076 33.1267ZM130.912 23.8367V22.8367H130.09L129.931 23.6428L130.912 23.8367ZM137.523 23.8367L138.504 24.0306L138.74 22.8367H137.523V23.8367ZM135.686 33.1267L134.705 32.9327L134.469 34.1267H135.686V33.1267ZM143.084 33.1267L144.063 33.3312L144.314 32.1267H143.084V33.1267ZM141.668 39.906V40.906H142.48L142.647 40.1105L141.668 39.906ZM134.322 39.906V38.906H133.497L133.34 39.7159L134.322 39.906ZM133.187 45.7664V46.7664H134.012L134.169 45.9565L133.187 45.7664ZM126.535 45.7664L125.554 45.5696L125.314 46.7664H126.535V45.7664ZM127.132 42.7937L128.112 42.9905L128.112 42.9905L127.132 42.7937ZM124.783 39.906L124.797 38.906H124.783V39.906ZM120.471 39.906V38.906H119.471V39.906H120.471ZM120.471 39.907V40.907H121.471V39.907H120.471ZM113.861 39.907H112.861V40.907H113.861V39.907ZM113.861 39.906H114.861V38.906H113.861V39.906ZM106.515 39.906L105.537 39.7014L105.285 40.906H106.515V39.906ZM107.932 33.1267V32.1267H107.12L106.954 32.9221L107.932 33.1267ZM115.173 33.1267V34.1267H115.994L116.154 33.3206L115.173 33.1267ZM117.009 23.8367V22.8367H116.187L116.028 23.6428L117.009 23.8367ZM123.672 23.8367L124.653 24.0305L124.889 22.8367H123.672V23.8367ZM119.608 44.363L118.625 44.179C118.231 46.2861 119.858 48.2204 121.999 48.2205L121.999 47.2205L121.999 46.2205C121.096 46.2205 120.43 45.4089 120.591 44.547L119.608 44.363ZM121.999 47.2205V48.2205H124.85V47.2205V46.2205H121.999V47.2205ZM124.85 47.2205H123.85V47.2244H124.85H125.85V47.2205H124.85ZM124.85 47.2244V48.2244H134.818V47.2244V46.2244H124.85V47.2244ZM134.818 47.2244H135.818V47.2205H134.818H133.818V47.2244H134.818ZM134.818 47.2205V48.2205H140.146V47.2205V46.2205H134.818V47.2205ZM140.146 47.2205L139.167 47.0159L137.75 53.7962L138.729 54.0007L139.708 54.2053L141.125 47.425L140.146 47.2205ZM138.729 54.0007V53.0007H131.542V54.0007V55.0007H138.729V54.0007ZM131.542 54.0007L130.561 53.8079L128.725 63.1507L129.706 63.3435L130.687 63.5363L132.523 54.1936L131.542 54.0007ZM129.706 63.3435V62.3435H123.094V63.3435V64.3435H129.706V63.3435ZM123.094 63.3435L124.076 63.5364L125.913 54.1937L124.931 54.0007L123.95 53.8078L122.113 63.1506L123.094 63.3435ZM124.931 54.0007V53.0007H117.691V54.0007V55.0007H124.931V54.0007ZM117.691 54.0007L116.71 53.8078L114.873 63.1506L115.854 63.3435L116.835 63.5364L118.672 54.1937L117.691 54.0007ZM115.854 63.3435V62.3435H109.191V63.3435V64.3435H115.854V63.3435ZM109.191 63.3435L110.171 63.5417L112.06 54.1989L111.08 54.0007L110.1 53.8026L108.211 63.1454L109.191 63.3435ZM111.08 54.0007V53.0007H103.578V54.0007V55.0007H111.08V54.0007ZM103.578 54.0007L104.557 54.2052L105.973 47.4249L104.994 47.2205L104.015 47.016L102.599 53.7963L103.578 54.0007ZM104.994 47.2205V48.2205H112.392V47.2205V46.2205H104.994V47.2205ZM112.392 47.2205L113.373 47.4173L114.549 41.5619L113.568 41.365L112.588 41.1681L111.412 47.0236L112.392 47.2205ZM113.568 41.365V42.365H120.189V41.365V40.365H113.568V41.365ZM120.189 41.365L119.207 41.1747L118.626 44.1728L119.608 44.363L120.59 44.5533L121.171 41.5553L120.189 41.365ZM121.836 33.1267V34.1267H129.076V33.1267V32.1267H121.836V33.1267ZM129.076 33.1267L130.057 33.3206L131.893 24.0305L130.912 23.8367L129.931 23.6428L128.095 32.9328L129.076 33.1267ZM130.912 23.8367V24.8367H137.523V23.8367V22.8367H130.912V23.8367ZM137.523 23.8367L136.542 23.6427L134.705 32.9327L135.686 33.1267L136.667 33.3207L138.504 24.0306L137.523 23.8367ZM135.686 33.1267V34.1267H143.084V33.1267V32.1267H135.686V33.1267ZM143.084 33.1267L142.105 32.9222L140.689 39.7015L141.668 39.906L142.647 40.1105L144.063 33.3312L143.084 33.1267ZM141.668 39.906V38.906H134.322V39.906V40.906H141.668V39.906ZM134.322 39.906L133.34 39.7159L132.205 45.5763L133.187 45.7664L134.169 45.9565L135.304 40.0961L134.322 39.906ZM133.187 45.7664V44.7664H126.535V45.7664V46.7664H133.187V45.7664ZM126.535 45.7664L127.515 45.9632L128.112 42.9905L127.132 42.7937L126.151 42.5969L125.554 45.5696L126.535 45.7664ZM127.132 42.7937L128.112 42.9905C128.535 40.8852 126.929 38.9362 124.797 38.9061L124.783 39.906L124.769 40.9059C125.668 40.9186 126.324 41.7358 126.151 42.5969L127.132 42.7937ZM124.783 39.906V38.906H120.471V39.906V40.906H124.783V39.906ZM120.471 39.906H119.471V39.907H120.471H121.471V39.906H120.471ZM120.471 39.907V38.907H113.861V39.907V40.907H120.471V39.907ZM113.861 39.907H114.861V39.906H113.861H112.861V39.907H113.861ZM113.861 39.906V38.906H106.515V39.906V40.906H113.861V39.906ZM106.515 39.906L107.494 40.1106L108.911 33.3313L107.932 33.1267L106.954 32.9221L105.537 39.7014L106.515 39.906ZM107.932 33.1267V34.1267H115.173V33.1267V32.1267H107.932V33.1267ZM115.173 33.1267L116.154 33.3206L117.99 24.0305L117.009 23.8367L116.028 23.6428L114.192 32.9328L115.173 33.1267ZM117.009 23.8367V24.8367H123.672V23.8367V22.8367H117.009V23.8367ZM123.672 23.8367L122.691 23.6428L120.855 32.9328L121.836 33.1267L122.817 33.3206L124.653 24.0305L123.672 23.8367Z" fill="black" mask="url(#path-5-outside-3_1450_4631)"/>
<rect x="299" y="27.5" width="615" height="35" rx="5" fill="#FAFAFA"/>
<rect x="299" y="27.5" width="615" height="35" rx="5" stroke="#1F1F1F"/>
<path d="M324.15 52.875L318.638 47.3625C318.2 47.7125 317.697 47.9896 317.128 48.1937C316.559 48.3979 315.954 48.5 315.313 48.5C313.723 48.5 312.378 47.9493 311.277 46.848C310.176 45.7467 309.626 44.4015 309.625 42.8125C309.624 41.2235 310.175 39.8783 311.277 38.777C312.379 37.6757 313.724 37.125 315.313 37.125C316.901 37.125 318.246 37.6757 319.349 38.777C320.451 39.8783 321.002 41.2235 321 42.8125C321 43.4542 320.898 44.0594 320.694 44.6281C320.49 45.1969 320.213 45.7 319.863 46.1375L325.375 51.65L324.15 52.875ZM315.313 46.75C316.406 46.75 317.336 46.3673 318.102 45.602C318.868 44.8367 319.251 43.9068 319.25 42.8125C319.249 41.7182 318.867 40.7886 318.102 40.0239C317.337 39.2591 316.407 38.8762 315.313 38.875C314.218 38.8738 313.288 39.2568 312.524 40.0239C311.76 40.791 311.377 41.7205 311.375 42.8125C311.373 43.9045 311.756 44.8343 312.524 45.602C313.292 46.3697 314.221 46.7523 315.313 46.75Z" fill="#ACACAC"/>
<path d="M337.746 51.168C337.083 51.168 336.481 51.042 335.94 50.79C335.399 50.538 334.941 50.202 334.568 49.782C334.195 49.3527 333.929 48.8813 333.77 48.368L334.778 47.99C335.021 48.6993 335.399 49.2407 335.912 49.614C336.425 49.978 337.037 50.16 337.746 50.16C338.194 50.16 338.586 50.09 338.922 49.95C339.267 49.8007 339.533 49.5953 339.72 49.334C339.907 49.0727 340 48.7693 340 48.424C340 47.9107 339.86 47.514 339.58 47.234C339.3 46.954 338.899 46.7393 338.376 46.59L336.5 46.03C335.763 45.8153 335.193 45.456 334.792 44.952C334.4 44.448 334.204 43.874 334.204 43.23C334.204 42.6793 334.339 42.194 334.61 41.774C334.881 41.3447 335.249 41.0087 335.716 40.766C336.192 40.5233 336.729 40.402 337.326 40.402C337.951 40.402 338.511 40.5187 339.006 40.752C339.51 40.976 339.935 41.2747 340.28 41.648C340.625 42.0213 340.873 42.4367 341.022 42.894L340.042 43.286C339.818 42.67 339.468 42.2033 338.992 41.886C338.525 41.5687 337.975 41.41 337.34 41.41C336.939 41.41 336.584 41.48 336.276 41.62C335.977 41.76 335.744 41.9607 335.576 42.222C335.408 42.4833 335.324 42.7913 335.324 43.146C335.324 43.5753 335.459 43.9627 335.73 44.308C336.001 44.644 336.416 44.896 336.976 45.064L338.628 45.554C339.449 45.7967 340.07 46.1467 340.49 46.604C340.91 47.0613 341.12 47.6353 341.12 48.326C341.12 48.886 340.975 49.3807 340.686 49.81C340.406 50.23 340.009 50.5613 339.496 50.804C338.992 51.0467 338.409 51.168 337.746 51.168ZM346.545 51.168C345.845 51.168 345.21 51 344.641 50.664C344.081 50.3187 343.637 49.8473 343.311 49.25C342.984 48.6527 342.821 47.976 342.821 47.22C342.821 46.464 342.979 45.7967 343.297 45.218C343.614 44.63 344.043 44.168 344.585 43.832C345.135 43.496 345.751 43.328 346.433 43.328C346.974 43.328 347.455 43.4307 347.875 43.636C348.304 43.832 348.668 44.1027 348.967 44.448C349.265 44.784 349.494 45.1667 349.653 45.596C349.811 46.016 349.891 46.45 349.891 46.898C349.891 46.9913 349.886 47.0987 349.877 47.22C349.867 47.332 349.853 47.4487 349.835 47.57H343.493V46.59H349.233L348.729 47.01C348.813 46.4967 348.752 46.0393 348.547 45.638C348.351 45.2273 348.066 44.9053 347.693 44.672C347.319 44.4293 346.899 44.308 346.433 44.308C345.966 44.308 345.532 44.4293 345.131 44.672C344.739 44.9147 344.431 45.2553 344.207 45.694C343.983 46.1233 343.894 46.6367 343.941 47.234C343.894 47.8313 343.987 48.354 344.221 48.802C344.463 49.2407 344.79 49.5813 345.201 49.824C345.621 50.0667 346.069 50.188 346.545 50.188C347.095 50.188 347.557 50.0573 347.931 49.796C348.304 49.5347 348.607 49.208 348.841 48.816L349.737 49.292C349.587 49.628 349.359 49.9407 349.051 50.23C348.743 50.51 348.374 50.7387 347.945 50.916C347.525 51.084 347.058 51.168 346.545 51.168ZM353.775 51.168C353.299 51.168 352.875 51.0793 352.501 50.902C352.128 50.7153 351.834 50.4633 351.619 50.146C351.405 49.8287 351.297 49.4647 351.297 49.054C351.297 48.662 351.381 48.3073 351.549 47.99C351.717 47.6633 351.979 47.388 352.333 47.164C352.688 46.94 353.141 46.7813 353.691 46.688L356.631 46.198V47.15L353.943 47.598C353.402 47.6913 353.01 47.864 352.767 48.116C352.534 48.368 352.417 48.6667 352.417 49.012C352.417 49.348 352.548 49.6327 352.809 49.866C353.08 50.0993 353.425 50.216 353.845 50.216C354.359 50.216 354.807 50.1087 355.189 49.894C355.572 49.67 355.871 49.3713 356.085 48.998C356.3 48.6247 356.407 48.2093 356.407 47.752V45.848C356.407 45.4 356.244 45.036 355.917 44.756C355.591 44.476 355.166 44.336 354.643 44.336C354.186 44.336 353.785 44.4527 353.439 44.686C353.094 44.91 352.837 45.204 352.669 45.568L351.717 45.05C351.857 44.7327 352.077 44.4433 352.375 44.182C352.683 43.9207 353.033 43.7153 353.425 43.566C353.817 43.4073 354.223 43.328 354.643 43.328C355.194 43.328 355.679 43.4353 356.099 43.65C356.529 43.8647 356.86 44.1633 357.093 44.546C357.336 44.9193 357.457 45.3533 357.457 45.848V51H356.407V49.502L356.561 49.656C356.431 49.936 356.225 50.1927 355.945 50.426C355.675 50.65 355.353 50.832 354.979 50.972C354.615 51.1027 354.214 51.168 353.775 51.168ZM359.617 51V43.496H360.667V44.728L360.527 44.546C360.704 44.1913 360.97 43.9113 361.325 43.706C361.689 43.5007 362.128 43.398 362.641 43.398H363.117V44.448H362.459C361.918 44.448 361.484 44.616 361.157 44.952C360.83 45.288 360.667 45.764 360.667 46.38V51H359.617ZM367.778 51.168C367.04 51.168 366.392 50.9953 365.832 50.65C365.272 50.3047 364.833 49.838 364.516 49.25C364.198 48.6527 364.04 47.9807 364.04 47.234C364.04 46.4873 364.198 45.82 364.516 45.232C364.833 44.644 365.272 44.182 365.832 43.846C366.392 43.5007 367.04 43.328 367.778 43.328C368.244 43.328 368.683 43.412 369.094 43.58C369.504 43.748 369.868 43.9767 370.186 44.266C370.503 44.546 370.741 44.8727 370.9 45.246L369.948 45.736C369.761 45.3347 369.476 45.008 369.094 44.756C368.711 44.504 368.272 44.378 367.778 44.378C367.283 44.378 366.835 44.504 366.434 44.756C366.042 44.9987 365.729 45.3393 365.496 45.778C365.272 46.2073 365.16 46.6973 365.16 47.248C365.16 47.7893 365.272 48.2793 365.496 48.718C365.729 49.1473 366.042 49.488 366.434 49.74C366.835 49.992 367.283 50.118 367.778 50.118C368.272 50.118 368.706 49.992 369.08 49.74C369.462 49.488 369.752 49.152 369.948 48.732L370.9 49.25C370.741 49.614 370.503 49.9407 370.186 50.23C369.868 50.5193 369.504 50.748 369.094 50.916C368.683 51.084 368.244 51.168 367.778 51.168ZM372.742 51V40.402H373.792V44.952L373.554 44.896C373.741 44.4107 374.044 44.028 374.464 43.748C374.893 43.468 375.388 43.328 375.948 43.328C376.48 43.328 376.956 43.4493 377.376 43.692C377.805 43.9347 378.141 44.2707 378.384 44.7C378.636 45.12 378.762 45.596 378.762 46.128V51H377.712V46.534C377.712 46.0767 377.628 45.6893 377.46 45.372C377.292 45.0547 377.059 44.812 376.76 44.644C376.471 44.4667 376.139 44.378 375.766 44.378C375.393 44.378 375.057 44.4667 374.758 44.644C374.459 44.812 374.221 45.0593 374.044 45.386C373.876 45.7033 373.792 46.086 373.792 46.534V51H372.742Z" fill="#ACACAC"/>
<path d="M1095.77 39.231L1086.23 48.774C1085.99 49.016 1085.71 49.1975 1085.4 49.3185C1085.1 49.4395 1084.79 49.5 1084.49 49.5C1084.19 49.5 1083.88 49.4395 1083.58 49.3185C1083.28 49.1975 1083.01 49.016 1082.76 48.774L1070.22 36.255C1069.98 36.038 1069.8 35.779 1069.68 35.478C1069.56 35.178 1069.5 34.862 1069.5 34.53V24.951C1069.5 24.277 1069.74 23.7 1070.21 23.22C1070.68 22.74 1071.26 22.5 1071.95 22.5H1081.53C1081.86 22.5 1082.17 22.5655 1082.47 22.6965C1082.78 22.8275 1083.04 23.0045 1083.27 23.2275L1095.77 35.7435C1096.02 35.9885 1096.21 36.264 1096.32 36.57C1096.43 36.876 1096.49 37.1845 1096.49 37.4955C1096.49 37.8065 1096.43 38.1115 1096.32 38.4105C1096.21 38.7095 1096.02 38.983 1095.77 39.231ZM1085.16 47.712L1094.7 38.169C1094.89 37.977 1094.99 37.751 1094.99 37.491C1094.99 37.231 1094.89 37.005 1094.7 36.813L1081.9 24.03H1071.95C1071.68 24.03 1071.46 24.1165 1071.27 24.2895C1071.09 24.4625 1071 24.6835 1071 24.9525V34.5225C1071 34.6385 1071.02 34.754 1071.06 34.869C1071.1 34.985 1071.16 35.091 1071.26 35.187L1083.81 47.712C1084 47.904 1084.22 48 1084.48 48C1084.74 48 1084.97 47.904 1085.16 47.712ZM1074.82 29.337C1075.25 29.337 1075.6 29.191 1075.9 28.899C1076.19 28.607 1076.34 28.253 1076.34 27.837C1076.34 27.412 1076.19 27.051 1075.9 26.754C1075.61 26.457 1075.25 26.308 1074.84 26.307C1074.41 26.307 1074.05 26.4545 1073.75 26.7495C1073.46 27.0445 1073.31 27.403 1073.31 27.825C1073.31 28.247 1073.46 28.604 1073.75 28.896C1074.05 29.188 1074.4 29.335 1074.82 29.337Z" fill="#1F1F1F"/>
<path d="M1095.31 39.1113L1086.12 48.3009C1085.88 48.5339 1085.61 48.7087 1085.32 48.8252C1085.03 48.9417 1084.73 49 1084.44 49C1084.15 49 1083.85 48.9417 1083.56 48.8252C1083.27 48.7087 1083.01 48.5339 1082.78 48.3009L1070.69 36.2456C1070.46 36.0366 1070.29 35.7872 1070.17 35.4973C1070.06 35.2084 1070 34.9041 1070 34.5844V25.3602C1070 24.7112 1070.23 24.1556 1070.68 23.6933C1071.14 23.2311 1071.7 23 1072.36 23H1081.59C1081.9 23 1082.2 23.0631 1082.5 23.1892C1082.79 23.3154 1083.05 23.4858 1083.26 23.7006L1095.31 35.753C1095.55 35.9889 1095.73 36.2542 1095.84 36.5489C1095.95 36.8436 1096 37.1406 1096 37.4401C1096 37.7396 1095.95 38.0333 1095.84 38.3212C1095.73 38.6091 1095.55 38.8725 1095.31 39.1113ZM1085.09 47.2782L1094.28 38.0887C1094.46 37.9038 1094.55 37.6861 1094.55 37.4358C1094.55 37.1854 1094.46 36.9678 1094.28 36.7829L1081.94 24.4733H1072.36C1072.1 24.4733 1071.88 24.5566 1071.71 24.7232C1071.53 24.8898 1071.44 25.1026 1071.44 25.3617V34.5772C1071.44 34.6889 1071.46 34.8001 1071.5 34.9109C1071.54 35.0226 1071.6 35.1247 1071.69 35.2171L1083.78 47.2782C1083.96 47.4631 1084.18 47.5556 1084.43 47.5556C1084.68 47.5556 1084.9 47.4631 1085.09 47.2782Z" fill="#1F1F1F"/>
<path d="M1075.71 69.168C1075.05 69.168 1074.45 69.042 1073.91 68.79C1073.37 68.538 1072.91 68.202 1072.54 67.782C1072.16 67.3527 1071.9 66.8813 1071.74 66.368L1072.75 65.99C1072.99 66.6993 1073.37 67.2407 1073.88 67.614C1074.39 67.978 1075.01 68.16 1075.71 68.16C1076.16 68.16 1076.55 68.09 1076.89 67.95C1077.24 67.8007 1077.5 67.5953 1077.69 67.334C1077.88 67.0727 1077.97 66.7693 1077.97 66.424C1077.97 65.9107 1077.83 65.514 1077.55 65.234C1077.27 64.954 1076.87 64.7393 1076.34 64.59L1074.47 64.03C1073.73 63.8153 1073.16 63.456 1072.76 62.952C1072.37 62.448 1072.17 61.874 1072.17 61.23C1072.17 60.6793 1072.31 60.194 1072.58 59.774C1072.85 59.3447 1073.22 59.0087 1073.68 58.766C1074.16 58.5233 1074.7 58.402 1075.29 58.402C1075.92 58.402 1076.48 58.5187 1076.97 58.752C1077.48 58.976 1077.9 59.2747 1078.25 59.648C1078.59 60.0213 1078.84 60.4367 1078.99 60.894L1078.01 61.286C1077.79 60.67 1077.44 60.2033 1076.96 59.886C1076.49 59.5687 1075.94 59.41 1075.31 59.41C1074.91 59.41 1074.55 59.48 1074.24 59.62C1073.95 59.76 1073.71 59.9607 1073.54 60.222C1073.38 60.4833 1073.29 60.7913 1073.29 61.146C1073.29 61.5753 1073.43 61.9627 1073.7 62.308C1073.97 62.644 1074.38 62.896 1074.94 63.064L1076.6 63.554C1077.42 63.7967 1078.04 64.1467 1078.46 64.604C1078.88 65.0613 1079.09 65.6353 1079.09 66.326C1079.09 66.886 1078.94 67.3807 1078.65 67.81C1078.37 68.23 1077.98 68.5613 1077.46 68.804C1076.96 69.0467 1076.38 69.168 1075.71 69.168ZM1084.51 69.168C1083.81 69.168 1083.18 69 1082.61 68.664C1082.05 68.3187 1081.61 67.8473 1081.28 67.25C1080.95 66.6527 1080.79 65.976 1080.79 65.22C1080.79 64.464 1080.95 63.7967 1081.27 63.218C1081.58 62.63 1082.01 62.168 1082.55 61.832C1083.1 61.496 1083.72 61.328 1084.4 61.328C1084.94 61.328 1085.42 61.4307 1085.84 61.636C1086.27 61.832 1086.64 62.1027 1086.94 62.448C1087.23 62.784 1087.46 63.1667 1087.62 63.596C1087.78 64.016 1087.86 64.45 1087.86 64.898C1087.86 64.9913 1087.85 65.0987 1087.85 65.22C1087.84 65.332 1087.82 65.4487 1087.8 65.57H1081.46V64.59H1087.2L1086.7 65.01C1086.78 64.4967 1086.72 64.0393 1086.52 63.638C1086.32 63.2273 1086.03 62.9053 1085.66 62.672C1085.29 62.4293 1084.87 62.308 1084.4 62.308C1083.93 62.308 1083.5 62.4293 1083.1 62.672C1082.71 62.9147 1082.4 63.2553 1082.18 63.694C1081.95 64.1233 1081.86 64.6367 1081.91 65.234C1081.86 65.8313 1081.96 66.354 1082.19 66.802C1082.43 67.2407 1082.76 67.5813 1083.17 67.824C1083.59 68.0667 1084.04 68.188 1084.51 68.188C1085.06 68.188 1085.53 68.0573 1085.9 67.796C1086.27 67.5347 1086.58 67.208 1086.81 66.816L1087.71 67.292C1087.56 67.628 1087.33 67.9407 1087.02 68.23C1086.71 68.51 1086.34 68.7387 1085.91 68.916C1085.49 69.084 1085.03 69.168 1084.51 69.168ZM1089.71 69V58.402H1090.76V69H1089.71ZM1092.91 69V58.402H1093.96V69H1092.91Z" fill="#1F1F1F"/>
<path d="M1137.62 30.6875V28.5625C1137.62 26.8717 1138.3 25.2502 1139.49 24.0547C1140.69 22.8592 1142.31 22.1875 1144 22.1875C1145.69 22.1875 1147.31 22.8592 1148.51 24.0547C1149.7 25.2502 1150.38 26.8717 1150.38 28.5625V30.6875M1132.31 30.6875C1132.03 30.6875 1131.76 30.7994 1131.56 30.9987C1131.36 31.198 1131.25 31.4682 1131.25 31.75V46.0938C1131.25 48.1019 1132.96 49.8125 1134.97 49.8125H1153.03C1155.04 49.8125 1156.75 48.1849 1156.75 46.1768V31.75C1156.75 31.4682 1156.64 31.198 1156.44 30.9987C1156.24 30.7994 1155.97 30.6875 1155.69 30.6875H1132.31Z" stroke="#1F1F1F" stroke-width="2" stroke-linecap="round" stroke-linejoin="round"/>
<path d="M1132.61 68V57.57H1136.99C1137.58 57.57 1138.09 57.682 1138.52 57.906C1138.96 58.1207 1139.3 58.424 1139.53 58.816C1139.77 59.208 1139.89 59.6653 1139.89 60.188C1139.89 60.7293 1139.76 61.21 1139.49 61.63C1139.23 62.0407 1138.85 62.3533 1138.35 62.568L1138.34 62.232C1138.75 62.3813 1139.1 62.5913 1139.39 62.862C1139.69 63.1327 1139.92 63.45 1140.07 63.814C1140.23 64.1687 1140.31 64.5513 1140.31 64.962C1140.31 65.8953 1140.01 66.6373 1139.42 67.188C1138.83 67.7293 1138.03 68 1137.01 68H1132.61ZM1133.73 66.95H1137.01C1137.67 66.95 1138.2 66.7773 1138.59 66.432C1138.99 66.0773 1139.19 65.592 1139.19 64.976C1139.19 64.3693 1138.99 63.8887 1138.59 63.534C1138.2 63.17 1137.67 62.988 1137.01 62.988H1133.73V66.95ZM1133.73 61.98H1136.91C1137.47 61.98 1137.92 61.8167 1138.25 61.49C1138.6 61.1633 1138.77 60.7433 1138.77 60.23C1138.77 59.7073 1138.6 59.3107 1138.25 59.04C1137.92 58.76 1137.47 58.62 1136.91 58.62H1133.73V61.98ZM1144.83 68.168C1144.3 68.168 1143.83 68.0467 1143.4 67.804C1142.97 67.552 1142.63 67.2067 1142.38 66.768C1142.13 66.32 1142.01 65.8067 1142.01 65.228V60.496H1143.06V65.102C1143.06 65.5033 1143.14 65.858 1143.3 66.166C1143.47 66.4647 1143.7 66.698 1143.99 66.866C1144.28 67.034 1144.63 67.118 1145.01 67.118C1145.39 67.118 1145.73 67.034 1146.03 66.866C1146.33 66.6887 1146.56 66.4413 1146.73 66.124C1146.9 65.7973 1146.98 65.41 1146.98 64.962V60.496H1148.03V68H1146.98V66.544L1147.22 66.6C1147.04 67.0853 1146.74 67.468 1146.31 67.748C1145.88 68.028 1145.39 68.168 1144.83 68.168ZM1150.35 71.08C1150.2 71.08 1150.04 71.066 1149.88 71.038C1149.73 71.0193 1149.58 70.982 1149.44 70.926V69.946C1149.53 69.9553 1149.65 69.9693 1149.79 69.988C1149.93 70.016 1150.08 70.03 1150.23 70.03C1150.69 70.03 1151.04 69.932 1151.28 69.736C1151.53 69.5493 1151.76 69.1853 1152 68.644L1152.47 67.524L1152.45 68.448L1149.27 60.496H1150.4L1153.01 67.062H1152.71L1155.3 60.496H1156.46L1153.03 68.952C1152.88 69.316 1152.69 69.6613 1152.46 69.988C1152.24 70.3147 1151.95 70.576 1151.61 70.772C1151.26 70.9773 1150.84 71.08 1150.35 71.08Z" fill="#1F1F1F"/>
<path d="M1191.5 47.25V24C1191.5 23.175 1192.17 22.5 1193 22.5H1217C1217.83 22.5 1218.5 23.175 1218.5 24V42C1218.5 42.825 1217.83 43.5 1217 43.5H1195.25L1191.5 47.25Z" stroke="#1F1F1F" stroke-width="2" stroke-linecap="round" stroke-linejoin="round"/>
<path d="M1199 28.5H1211" stroke="#1F1F1F" stroke-width="2" stroke-linecap="round" stroke-linejoin="round"/>
<path d="M1199 33H1211" stroke="#1F1F1F" stroke-width="2" stroke-linecap="round" stroke-linejoin="round"/>
<path d="M1199 37.5H1205" stroke="#1F1F1F" stroke-width="2" stroke-linecap="round" stroke-linejoin="round"/>
<path d="M1192.99 69.168C1192.25 69.168 1191.58 69.0373 1190.96 68.776C1190.35 68.5053 1189.81 68.132 1189.35 67.656C1188.9 67.1707 1188.55 66.6013 1188.3 65.948C1188.05 65.2947 1187.92 64.576 1187.92 63.792C1187.92 63.008 1188.05 62.2893 1188.3 61.636C1188.55 60.9827 1188.9 60.4133 1189.35 59.928C1189.81 59.4427 1190.35 59.0693 1190.96 58.808C1191.58 58.5373 1192.25 58.402 1192.99 58.402C1193.7 58.402 1194.34 58.528 1194.9 58.78C1195.47 59.032 1195.94 59.3587 1196.32 59.76C1196.72 60.152 1197 60.5673 1197.16 61.006L1196.11 61.468C1195.85 60.8613 1195.45 60.376 1194.91 60.012C1194.38 59.6387 1193.74 59.452 1192.99 59.452C1192.23 59.452 1191.55 59.634 1190.95 59.998C1190.35 60.362 1189.88 60.8707 1189.55 61.524C1189.21 62.168 1189.04 62.924 1189.04 63.792C1189.04 64.6507 1189.21 65.4067 1189.55 66.06C1189.88 66.7133 1190.35 67.222 1190.95 67.586C1191.55 67.9407 1192.23 68.118 1192.99 68.118C1193.74 68.118 1194.38 67.936 1194.91 67.572C1195.45 67.208 1195.85 66.7227 1196.11 66.116L1197.16 66.578C1197 67.0073 1196.72 67.4227 1196.32 67.824C1195.94 68.216 1195.47 68.538 1194.9 68.79C1194.34 69.042 1193.7 69.168 1192.99 69.168ZM1199.02 69V58.402H1200.07V62.952L1199.83 62.896C1200.01 62.4107 1200.32 62.028 1200.74 61.748C1201.17 61.468 1201.66 61.328 1202.22 61.328C1202.75 61.328 1203.23 61.4493 1203.65 61.692C1204.08 61.9347 1204.41 62.2707 1204.66 62.7C1204.91 63.12 1205.04 63.596 1205.04 64.128V69H1203.99V64.534C1203.99 64.0767 1203.9 63.6893 1203.73 63.372C1203.57 63.0547 1203.33 62.812 1203.03 62.644C1202.74 62.4667 1202.41 62.378 1202.04 62.378C1201.67 62.378 1201.33 62.4667 1201.03 62.644C1200.73 62.812 1200.49 63.0593 1200.32 63.386C1200.15 63.7033 1200.07 64.086 1200.07 64.534V69H1199.02ZM1209.21 69.168C1208.73 69.168 1208.31 69.0793 1207.94 68.902C1207.56 68.7153 1207.27 68.4633 1207.05 68.146C1206.84 67.8287 1206.73 67.4647 1206.73 67.054C1206.73 66.662 1206.82 66.3073 1206.98 65.99C1207.15 65.6633 1207.41 65.388 1207.77 65.164C1208.12 64.94 1208.58 64.7813 1209.13 64.688L1212.07 64.198V65.15L1209.38 65.598C1208.84 65.6913 1208.45 65.864 1208.2 66.116C1207.97 66.368 1207.85 66.6667 1207.85 67.012C1207.85 67.348 1207.98 67.6327 1208.24 67.866C1208.52 68.0993 1208.86 68.216 1209.28 68.216C1209.79 68.216 1210.24 68.1087 1210.62 67.894C1211.01 67.67 1211.31 67.3713 1211.52 66.998C1211.74 66.6247 1211.84 66.2093 1211.84 65.752V63.848C1211.84 63.4 1211.68 63.036 1211.35 62.756C1211.03 62.476 1210.6 62.336 1210.08 62.336C1209.62 62.336 1209.22 62.4527 1208.87 62.686C1208.53 62.91 1208.27 63.204 1208.1 63.568L1207.15 63.05C1207.29 62.7327 1207.51 62.4433 1207.81 62.182C1208.12 61.9207 1208.47 61.7153 1208.86 61.566C1209.25 61.4073 1209.66 61.328 1210.08 61.328C1210.63 61.328 1211.11 61.4353 1211.53 61.65C1211.96 61.8647 1212.3 62.1633 1212.53 62.546C1212.77 62.9193 1212.89 63.3533 1212.89 63.848V69H1211.84V67.502L1212 67.656C1211.87 67.936 1211.66 68.1927 1211.38 68.426C1211.11 68.65 1210.79 68.832 1210.41 68.972C1210.05 69.1027 1209.65 69.168 1209.21 69.168ZM1217.79 69.084C1217.11 69.084 1216.6 68.888 1216.23 68.496C1215.87 68.104 1215.69 67.544 1215.69 66.816V62.546H1214.3V61.496H1214.65C1214.97 61.496 1215.22 61.3933 1215.41 61.188C1215.59 60.9733 1215.69 60.7073 1215.69 60.39V59.76H1216.74V61.496H1218.39V62.546H1216.74V66.816C1216.74 67.068 1216.77 67.292 1216.85 67.488C1216.92 67.6747 1217.05 67.824 1217.23 67.936C1217.41 68.048 1217.66 68.104 1217.97 68.104C1218.04 68.104 1218.13 68.0993 1218.23 68.09C1218.34 68.0807 1218.43 68.0713 1218.5 68.062V69C1218.39 69.028 1218.26 69.0467 1218.12 69.056C1217.98 69.0747 1217.87 69.084 1217.79 69.084Z" fill="#1F1F1F"/>
<g clip-path="url(#clip0_1450_4631)">
<rect x="1288" y="18.5" width="53" height="53" rx="26.5" fill="#DFDFDF"/>
<ellipse cx="1314.5" cy="65.6829" rx="19.3902" ry="18.0976" fill="#ACACAC"/>
<circle cx="1314.18" cy="35.6281" r="9.37195" fill="#ACACAC"/>
</g>
<path d="M1345.12 43.25L1349.5 47.625L1353.88 43.25" stroke="#ACACAC" stroke-width="2" stroke-linecap="round" stroke-linejoin="round"/>
</g>
<defs>
<filter id="filter0_d_1450_4631" x="-6" y="-6" width="1452" height="102" filterUnits="userSpaceOnUse" color-interpolation-filters="sRGB">
<feFlood flood-opacity="0" result="BackgroundImageFix"/>
<feColorMatrix in="SourceAlpha" type="matrix" values="0 0 0 0 0 0 0 0 0 0 0 0 0 0 0 0 0 0 127 0" result="hardAlpha"/>
<feOffset/>
<feGaussianBlur stdDeviation="3"/>
<feComposite in2="hardAlpha" operator="out"/>
<feColorMatrix type="matrix" values="0 0 0 0 0 0 0 0 0 0 0 0 0 0 0 0 0 0 0.25 0"/>
<feBlend mode="normal" in2="BackgroundImageFix" result="effect1_dropShadow_1450_4631"/>
<feBlend mode="normal" in="SourceGraphic" in2="effect1_dropShadow_1450_4631" result="shape"/>
</filter>
<clipPath id="clip0_1450_4631">
<rect x="1288" y="18.5" width="53" height="53" rx="26.5" fill="white"/>
</clipPath>
</defs>
</svg>
