<svg width="36" height="54" viewBox="0 0 36 54" fill="none" xmlns="http://www.w3.org/2000/svg">
<path d="M30.774 21.231L21.231 30.774C20.986 31.016 20.7105 31.1975 20.4045 31.3185C20.0985 31.4395 19.7935 31.5 19.4895 31.5C19.1855 31.5 18.883 31.4395 18.582 31.3185C18.281 31.1975 18.008 31.016 17.763 30.774L5.21996 18.255C4.98296 18.038 4.80396 17.779 4.68296 17.478C4.56196 17.178 4.50146 16.862 4.50146 16.53V6.951C4.50146 6.277 4.73747 5.7 5.20947 5.22C5.68147 4.74 6.26247 4.5 6.95247 4.5H16.5315C16.8555 4.5 17.17 4.5655 17.475 4.6965C17.78 4.8275 18.0435 5.0045 18.2655 5.2275L30.774 17.7435C31.024 17.9885 31.206 18.264 31.32 18.57C31.434 18.876 31.491 19.1845 31.491 19.4955C31.491 19.8065 31.434 20.1115 31.32 20.4105C31.206 20.7095 31.024 20.983 30.774 21.231ZM20.1615 29.712L29.703 20.169C29.895 19.977 29.991 19.751 29.991 19.491C29.991 19.231 29.895 19.005 29.703 18.813L16.899 6.03H6.95247C6.68247 6.03 6.45647 6.1165 6.27447 6.2895C6.09147 6.4625 5.99996 6.6835 5.99996 6.9525V16.5225C5.99996 16.6385 6.01946 16.754 6.05847 16.869C6.09646 16.985 6.16346 17.091 6.25946 17.187L18.8055 29.712C18.9975 29.904 19.223 30 19.482 30C19.742 30 19.9685 29.904 20.1615 29.712ZM9.82497 11.337C10.246 11.337 10.603 11.191 10.896 10.899C11.189 10.607 11.336 10.253 11.337 9.837C11.337 9.412 11.191 9.051 10.899 8.754C10.607 8.457 10.253 8.308 9.83697 8.307C9.41196 8.307 9.05096 8.4545 8.75396 8.7495C8.45696 9.0445 8.30847 9.403 8.30847 9.825C8.30847 10.247 8.45597 10.604 8.75097 10.896C9.04597 11.188 9.40397 11.335 9.82497 11.337Z" fill="#1F1F1F"/>
<path d="M30.3093 21.1113L21.1162 30.3009C20.8801 30.5339 20.6147 30.7087 20.32 30.8252C20.0252 30.9417 19.7314 31 19.4385 31C19.1457 31 18.8542 30.9417 18.5643 30.8252C18.2743 30.7087 18.0113 30.5339 17.7753 30.3009L5.69216 18.2456C5.46385 18.0366 5.29141 17.7872 5.17485 17.4973C5.05828 17.2084 5 16.9041 5 16.5844V7.36022C5 6.71118 5.22735 6.15556 5.68204 5.69333C6.13674 5.23111 6.69644 5 7.36114 5H16.589C16.9011 5 17.204 5.06307 17.4979 5.18922C17.7917 5.31537 18.0455 5.48581 18.2594 5.70056L30.3093 17.753C30.5501 17.9889 30.7254 18.2542 30.8353 18.5489C30.9451 18.8436 31 19.1406 31 19.4401C31 19.7396 30.9451 20.0333 30.8353 20.3212C30.7254 20.6091 30.5501 20.8725 30.3093 21.1113ZM20.0859 29.2782L29.2776 20.0887C29.4625 19.9038 29.555 19.6861 29.555 19.4358C29.555 19.1854 29.4625 18.9678 29.2776 18.7829L16.943 6.47333H7.36114C7.10104 6.47333 6.88333 6.55663 6.708 6.72322C6.53171 6.88981 6.44356 7.10263 6.44356 7.36167V16.5772C6.44356 16.6889 6.46235 16.8001 6.49992 16.9109C6.53652 17.0226 6.60107 17.1247 6.69355 17.2171L18.7796 29.2782C18.9645 29.4631 19.1818 29.5556 19.4313 29.5556C19.6817 29.5556 19.8999 29.4631 20.0859 29.2782Z" fill="#1F1F1F"/>
<path d="M10.7148 51.168C10.0521 51.168 9.45008 51.042 8.90875 50.79C8.36742 50.538 7.91008 50.202 7.53675 49.782C7.16342 49.3527 6.89742 48.8813 6.73875 48.368L7.74675 47.99C7.98942 48.6993 8.36742 49.2407 8.88075 49.614C9.39408 49.978 10.0054 50.16 10.7148 50.16C11.1628 50.16 11.5548 50.09 11.8908 49.95C12.2361 49.8007 12.5021 49.5953 12.6888 49.334C12.8754 49.0727 12.9688 48.7693 12.9688 48.424C12.9688 47.9107 12.8288 47.514 12.5488 47.234C12.2688 46.954 11.8674 46.7393 11.3448 46.59L9.46875 46.03C8.73142 45.8153 8.16208 45.456 7.76075 44.952C7.36875 44.448 7.17275 43.874 7.17275 43.23C7.17275 42.6793 7.30808 42.194 7.57875 41.774C7.84942 41.3447 8.21808 41.0087 8.68475 40.766C9.16075 40.5233 9.69742 40.402 10.2948 40.402C10.9201 40.402 11.4801 40.5187 11.9748 40.752C12.4788 40.976 12.9034 41.2747 13.2488 41.648C13.5941 42.0213 13.8414 42.4367 13.9908 42.894L13.0108 43.286C12.7868 42.67 12.4368 42.2033 11.9608 41.886C11.4941 41.5687 10.9434 41.41 10.3088 41.41C9.90742 41.41 9.55275 41.48 9.24475 41.62C8.94608 41.76 8.71275 41.9607 8.54475 42.222C8.37675 42.4833 8.29275 42.7913 8.29275 43.146C8.29275 43.5753 8.42808 43.9627 8.69875 44.308C8.96942 44.644 9.38475 44.896 9.94475 45.064L11.5968 45.554C12.4181 45.7967 13.0388 46.1467 13.4588 46.604C13.8788 47.0613 14.0888 47.6353 14.0888 48.326C14.0888 48.886 13.9441 49.3807 13.6548 49.81C13.3748 50.23 12.9781 50.5613 12.4648 50.804C11.9608 51.0467 11.3774 51.168 10.7148 51.168ZM19.5135 51.168C18.8135 51.168 18.1789 51 17.6095 50.664C17.0495 50.3187 16.6062 49.8473 16.2795 49.25C15.9529 48.6527 15.7895 47.976 15.7895 47.22C15.7895 46.464 15.9482 45.7967 16.2655 45.218C16.5829 44.63 17.0122 44.168 17.5535 43.832C18.1042 43.496 18.7202 43.328 19.4015 43.328C19.9429 43.328 20.4235 43.4307 20.8435 43.636C21.2729 43.832 21.6369 44.1027 21.9355 44.448C22.2342 44.784 22.4629 45.1667 22.6215 45.596C22.7802 46.016 22.8595 46.45 22.8595 46.898C22.8595 46.9913 22.8549 47.0987 22.8455 47.22C22.8362 47.332 22.8222 47.4487 22.8035 47.57H16.4615V46.59H22.2015L21.6975 47.01C21.7815 46.4967 21.7209 46.0393 21.5155 45.638C21.3195 45.2273 21.0349 44.9053 20.6615 44.672C20.2882 44.4293 19.8682 44.308 19.4015 44.308C18.9349 44.308 18.5009 44.4293 18.0995 44.672C17.7075 44.9147 17.3995 45.2553 17.1755 45.694C16.9515 46.1233 16.8629 46.6367 16.9095 47.234C16.8629 47.8313 16.9562 48.354 17.1895 48.802C17.4322 49.2407 17.7589 49.5813 18.1695 49.824C18.5895 50.0667 19.0375 50.188 19.5135 50.188C20.0642 50.188 20.5262 50.0573 20.8995 49.796C21.2729 49.5347 21.5762 49.208 21.8095 48.816L22.7055 49.292C22.5562 49.628 22.3275 49.9407 22.0195 50.23C21.7115 50.51 21.3429 50.7387 20.9135 50.916C20.4935 51.084 20.0269 51.168 19.5135 51.168ZM24.7108 51V40.402H25.7608V51H24.7108ZM27.91 51V40.402H28.96V51H27.91Z" fill="#1F1F1F"/>
</svg>
