<svg width="46" height="46" viewBox="0 0 46 46" fill="none" xmlns="http://www.w3.org/2000/svg">
<mask id="path-1-outside-1_1689_1620" maskUnits="userSpaceOnUse" x="0.687744" y="2.03894" width="45" height="44" fill="black">
<rect fill="white" x="0.687744" y="2.03894" width="45" height="44"/>
<path d="M21.9465 13.329H29.1868L31.0227 4.03894H37.6331L35.7971 13.329H43.1946L41.7786 20.1083H34.4329L33.2981 25.9686H26.6458L27.2424 22.996C27.5401 21.5126 26.409 20.1293 24.8928 20.1083H20.5823L19.8098 24.0966L19.7219 24.5507C19.4354 26.0317 20.5684 27.4059 22.0813 27.4227H24.9602V27.4266H34.929V27.4227H40.2571L38.8401 34.203H31.6526L29.8157 43.5458H23.2053L25.0413 34.203H17.801L15.9651 43.5458H9.302L11.1907 34.203H3.68774L5.10474 27.4227H9.70532V27.9862H19.6731V26.5272H12.6819L13.9719 20.1083H6.62622L8.04321 13.329H15.2834L17.1194 4.03894H23.7825L21.9465 13.329Z"/>
</mask>
<path d="M21.9465 13.329H29.1868L31.0227 4.03894H37.6331L35.7971 13.329H43.1946L41.7786 20.1083H34.4329L33.2981 25.9686H26.6458L27.2424 22.996C27.5401 21.5126 26.409 20.1293 24.8928 20.1083H20.5823L19.8098 24.0966L19.7219 24.5507C19.4354 26.0317 20.5684 27.4059 22.0813 27.4227H24.9602V27.4266H34.929V27.4227H40.2571L38.8401 34.203H31.6526L29.8157 43.5458H23.2053L25.0413 34.203H17.801L15.9651 43.5458H9.302L11.1907 34.203H3.68774L5.10474 27.4227H9.70532V27.9862H19.6731V26.5272H12.6819L13.9719 20.1083H6.62622L8.04321 13.329H15.2834L17.1194 4.03894H23.7825L21.9465 13.329Z" fill="black"/>
<path d="M21.9465 13.329L20.0584 12.9558L19.6043 15.2537H21.9465V13.329ZM29.1868 13.329V15.2537H30.7683L31.0749 13.7021L29.1868 13.329ZM31.0227 4.03894V2.11426H29.4412L29.1345 3.66579L31.0227 4.03894ZM37.6331 4.03894L39.5212 4.41209L39.9753 2.11426H37.6331V4.03894ZM35.7971 13.329L33.909 12.9558L33.4549 15.2537H35.7971V13.329ZM43.1946 13.329L45.0786 13.7225L45.5628 11.4043H43.1946V13.329ZM41.7786 20.1083V22.033H43.3428L43.6626 20.5018L41.7786 20.1083ZM34.4329 20.1083V18.1836H32.8451L32.5433 19.7424L34.4329 20.1083ZM33.2981 25.9686V27.8933H34.8858L35.1877 26.3345L33.2981 25.9686ZM26.6458 25.9686L24.7587 25.5899L24.2964 27.8933H26.6458V25.9686ZM27.2424 22.996L29.1295 23.3747L29.1295 23.3746L27.2424 22.996ZM24.8928 20.1083L24.9195 18.1838L24.9061 18.1836H24.8928V20.1083ZM20.5823 20.1083V18.1836H18.9946L18.6927 19.7423L20.5823 20.1083ZM19.8098 24.0966L17.9203 23.7306L17.9202 23.7308L19.8098 24.0966ZM19.7219 24.5507L17.8323 24.1849L17.8323 24.1851L19.7219 24.5507ZM22.0813 27.4227L22.0599 29.3473L22.0706 29.3474H22.0813V27.4227ZM24.9602 27.4227H26.8849V25.4981H24.9602V27.4227ZM24.9602 27.4266H23.0355V29.3513H24.9602V27.4266ZM34.929 27.4266V29.3513H36.8536V27.4266H34.929ZM34.929 27.4227V25.4981H33.0043V27.4227H34.929ZM40.2571 27.4227L42.1411 27.8165L42.6256 25.4981H40.2571V27.4227ZM38.8401 34.203V36.1277H40.4041L40.7241 34.5967L38.8401 34.203ZM31.6526 34.203V32.2783H30.0695L29.7641 33.8317L31.6526 34.203ZM29.8157 43.5458V45.4705H31.3988L31.7042 43.9171L29.8157 43.5458ZM23.2053 43.5458L21.3168 43.1747L20.8656 45.4705H23.2053V43.5458ZM25.0413 34.203L26.9298 34.5741L27.381 32.2783H25.0413V34.203ZM17.801 34.203V32.2783H16.2178L15.9125 33.8319L17.801 34.203ZM15.9651 43.5458V45.4705H17.5484L17.8536 43.9169L15.9651 43.5458ZM9.302 43.5458L7.41549 43.1644L6.94931 45.4705H9.302V43.5458ZM11.1907 34.203L13.0772 34.5844L13.5434 32.2783H11.1907V34.203ZM3.68774 34.203L1.80377 33.8093L1.31925 36.1277H3.68774V34.203ZM5.10474 27.4227V25.4981H3.54071L3.22076 27.029L5.10474 27.4227ZM9.70532 27.4227H11.63V25.4981H9.70532V27.4227ZM9.70532 27.9862H7.78065V29.9109H9.70532V27.9862ZM19.6731 27.9862V29.9109H21.5978V27.9862H19.6731ZM19.6731 26.5272H21.5978V24.6025H19.6731V26.5272ZM12.6819 26.5272L10.7949 26.148L10.3319 28.4519H12.6819V26.5272ZM13.9719 20.1083L15.8589 20.4875L16.3219 18.1836H13.9719V20.1083ZM6.62622 20.1083L4.74226 19.7145L4.25766 22.033H6.62622V20.1083ZM8.04321 13.329V11.4043H6.47923L6.15925 12.9352L8.04321 13.329ZM15.2834 13.329V15.2537H16.865L17.1716 13.7021L15.2834 13.329ZM17.1194 4.03894V2.11426H15.5378L15.2312 3.66579L17.1194 4.03894ZM23.7825 4.03894L25.6706 4.41209L26.1247 2.11426H23.7825V4.03894ZM21.9465 13.329V15.2537H29.1868V13.329V11.4043H21.9465V13.329ZM29.1868 13.329L31.0749 13.7021L32.9109 4.41209L31.0227 4.03894L29.1345 3.66579L27.2986 12.9558L29.1868 13.329ZM31.0227 4.03894V5.96362H37.6331V4.03894V2.11426H31.0227V4.03894ZM37.6331 4.03894L35.7449 3.66579L33.909 12.9558L35.7971 13.329L37.6853 13.7021L39.5212 4.41209L37.6331 4.03894ZM35.7971 13.329V15.2537H43.1946V13.329V11.4043H35.7971V13.329ZM43.1946 13.329L41.3106 12.9355L39.8945 19.7148L41.7786 20.1083L43.6626 20.5018L45.0786 13.7225L43.1946 13.329ZM41.7786 20.1083V18.1836H34.4329V20.1083V22.033H41.7786V20.1083ZM34.4329 20.1083L32.5433 19.7424L31.4085 25.6027L33.2981 25.9686L35.1877 26.3345L36.3224 20.4742L34.4329 20.1083ZM33.2981 25.9686V24.044H26.6458V25.9686V27.8933H33.2981V25.9686ZM26.6458 25.9686L28.5328 26.3474L29.1295 23.3747L27.2424 22.996L25.3554 22.6172L24.7587 25.5899L26.6458 25.9686ZM27.2424 22.996L29.1295 23.3746C29.6674 20.6935 27.6223 18.2212 24.9195 18.1838L24.8928 20.1083L24.8662 22.0328C25.1957 22.0373 25.4127 22.3316 25.3554 22.6173L27.2424 22.996ZM24.8928 20.1083V18.1836H20.5823V20.1083V22.033H24.8928V20.1083ZM20.5823 20.1083L18.6927 19.7423L17.9203 23.7306L19.8098 24.0966L21.6994 24.4625L22.4718 20.4743L20.5823 20.1083ZM19.8098 24.0966L17.9202 23.7308L17.8323 24.1849L19.7219 24.5507L21.6115 24.9164L21.6994 24.4623L19.8098 24.0966ZM19.7219 24.5507L17.8323 24.1851C17.3146 26.8608 19.3622 29.3173 22.0599 29.3473L22.0813 27.4227L22.1027 25.4982C21.7746 25.4945 21.5562 25.2025 21.6116 24.9163L19.7219 24.5507ZM22.0813 27.4227V29.3474H24.9602V27.4227V25.4981H22.0813V27.4227ZM24.9602 27.4227H23.0355V27.4266H24.9602H26.8849V27.4227H24.9602ZM24.9602 27.4266V29.3513H34.929V27.4266V25.502H24.9602V27.4266ZM34.929 27.4266H36.8536V27.4227H34.929H33.0043V27.4266H34.929ZM34.929 27.4227V29.3474H40.2571V27.4227V25.4981H34.929V27.4227ZM40.2571 27.4227L38.3731 27.029L36.9561 33.8093L38.8401 34.203L40.7241 34.5967L42.1411 27.8165L40.2571 27.4227ZM38.8401 34.203V32.2783H31.6526V34.203V36.1277H38.8401V34.203ZM31.6526 34.203L29.7641 33.8317L27.9272 43.1745L29.8157 43.5458L31.7042 43.9171L33.5411 34.5743L31.6526 34.203ZM29.8157 43.5458V41.6211H23.2053V43.5458V45.4705H29.8157V43.5458ZM23.2053 43.5458L25.0939 43.9169L26.9298 34.5741L25.0413 34.203L23.1527 33.8319L21.3168 43.1747L23.2053 43.5458ZM25.0413 34.203V32.2783H17.801V34.203V36.1277H25.0413V34.203ZM17.801 34.203L15.9125 33.8319L14.0765 43.1747L15.9651 43.5458L17.8536 43.9169L19.6896 34.5741L17.801 34.203ZM15.9651 43.5458V41.6211H9.302V43.5458V45.4705H15.9651V43.5458ZM9.302 43.5458L11.1885 43.9271L13.0772 34.5844L11.1907 34.203L9.30416 33.8216L7.41549 43.1644L9.302 43.5458ZM11.1907 34.203V32.2783H3.68774V34.203V36.1277H11.1907V34.203ZM3.68774 34.203L5.57172 34.5967L6.98871 27.8165L5.10474 27.4227L3.22076 27.029L1.80377 33.8093L3.68774 34.203ZM5.10474 27.4227V29.3474H9.70532V27.4227V25.4981H5.10474V27.4227ZM9.70532 27.4227H7.78065V27.9862H9.70532H11.63V27.4227H9.70532ZM9.70532 27.9862V29.9109H19.6731V27.9862V26.0615H9.70532V27.9862ZM19.6731 27.9862H21.5978V26.5272H19.6731H17.7484V27.9862H19.6731ZM19.6731 26.5272V24.6025H12.6819V26.5272V28.4519H19.6731V26.5272ZM12.6819 26.5272L14.5688 26.9064L15.8589 20.4875L13.9719 20.1083L12.085 19.729L10.7949 26.148L12.6819 26.5272ZM13.9719 20.1083V18.1836H6.62622V20.1083V22.033H13.9719V20.1083ZM6.62622 20.1083L8.51018 20.5021L9.92718 13.7228L8.04321 13.329L6.15925 12.9352L4.74226 19.7145L6.62622 20.1083ZM8.04321 13.329V15.2537H15.2834V13.329V11.4043H8.04321V13.329ZM15.2834 13.329L17.1716 13.7021L19.0075 4.41209L17.1194 4.03894L15.2312 3.66579L13.3953 12.9558L15.2834 13.329ZM17.1194 4.03894V5.96362H23.7825V4.03894V2.11426H17.1194V4.03894ZM23.7825 4.03894L21.8943 3.66579L20.0584 12.9558L21.9465 13.329L23.8347 13.7021L25.6706 4.41209L23.7825 4.03894Z" fill="black" mask="url(#path-1-outside-1_1689_1620)"/>
<mask id="path-3-outside-2_1689_1620" maskUnits="userSpaceOnUse" x="-0.0754395" y="2.03882" width="45" height="44" fill="black">
<rect fill="white" x="-0.0754395" y="2.03882" width="45" height="44"/>
<path d="M20.4861 13.3279H27.7263L29.5632 4.03882H36.1736L34.3376 13.3279H41.7351L40.3181 20.1082H32.9734L31.8386 25.9675H25.1853L25.7332 23.2429H25.7322L25.782 22.9958C26.0799 21.5124 24.9495 20.1293 23.4333 20.1082H19.1228L18.3503 24.0964L18.2625 24.5496C17.9738 26.0397 19.1224 27.4224 20.6492 27.4226H23.5007V27.4265H33.4685V27.4226H38.7966L37.3806 34.2029H30.1921L28.3562 43.5457H21.4343V42.0867L23.5818 34.2029H16.3416L14.5056 43.5457H7.51636V42.0867L9.7312 34.2029H1.92456V32.6658L3.64526 27.4226H8.24585V27.9861H18.2136V26.5271H11.2224L12.5115 20.1082H4.84155V18.7478L6.58276 13.3279H13.823L15.6599 4.03882H22.323L20.4861 13.3279Z"/>
</mask>
<path d="M20.4861 13.3279H27.7263L29.5632 4.03882H36.1736L34.3376 13.3279H41.7351L40.3181 20.1082H32.9734L31.8386 25.9675H25.1853L25.7332 23.2429H25.7322L25.782 22.9958C26.0799 21.5124 24.9495 20.1293 23.4333 20.1082H19.1228L18.3503 24.0964L18.2625 24.5496C17.9738 26.0397 19.1224 27.4224 20.6492 27.4226H23.5007V27.4265H33.4685V27.4226H38.7966L37.3806 34.2029H30.1921L28.3562 43.5457H21.4343V42.0867L23.5818 34.2029H16.3416L14.5056 43.5457H7.51636V42.0867L9.7312 34.2029H1.92456V32.6658L3.64526 27.4226H8.24585V27.9861H18.2136V26.5271H11.2224L12.5115 20.1082H4.84155V18.7478L6.58276 13.3279H13.823L15.6599 4.03882H22.323L20.4861 13.3279Z" fill="#8D22F2"/>
<path d="M20.4861 13.3279L18.598 12.9545L18.1435 15.2526H20.4861V13.3279ZM27.7263 13.3279V15.2526H29.3077L29.6144 13.7013L27.7263 13.3279ZM29.5632 4.03882V2.11414H27.9819L27.6751 3.66544L29.5632 4.03882ZM36.1736 4.03882L38.0617 4.412L38.5159 2.11414H36.1736V4.03882ZM34.3376 13.3279L32.4495 12.9547L31.9953 15.2526H34.3376V13.3279ZM41.7351 13.3279L43.6191 13.7216L44.1036 11.4032H41.7351V13.3279ZM40.3181 20.1082V22.0328H41.8821L42.2021 20.5019L40.3181 20.1082ZM32.9734 20.1082V18.1835H31.3857L31.0838 19.7422L32.9734 20.1082ZM31.8386 25.9675V27.8922H33.4263L33.7282 26.3335L31.8386 25.9675ZM25.1853 25.9675L23.2984 25.5881L22.8351 27.8922H25.1853V25.9675ZM25.7332 23.2429L27.6201 23.6223L28.0834 21.3182H25.7332V23.2429ZM25.7322 23.2429L23.8455 22.8626L23.3808 25.1676H25.7322V23.2429ZM25.782 22.9958L27.6687 23.3762L27.669 23.3748L25.782 22.9958ZM23.4333 20.1082L23.4602 18.1837L23.4468 18.1835H23.4333V20.1082ZM19.1228 20.1082V18.1835H17.5351L17.2332 19.7422L19.1228 20.1082ZM18.3503 24.0964L20.2398 24.4629L20.2399 24.4624L18.3503 24.0964ZM18.2625 24.5496L16.373 24.1831L16.3729 24.1836L18.2625 24.5496ZM20.6492 27.4226L20.6489 29.3473H20.6492V27.4226ZM23.5007 27.4226H25.4254V25.4979H23.5007V27.4226ZM23.5007 27.4265H21.5761V29.3512H23.5007V27.4265ZM33.4685 27.4265V29.3512H35.3932V27.4265H33.4685ZM33.4685 27.4226V25.4979H31.5438V27.4226H33.4685ZM38.7966 27.4226L40.6807 27.8161L41.1648 25.4979H38.7966V27.4226ZM37.3806 34.2029V36.1276H38.9449L39.2646 34.5963L37.3806 34.2029ZM30.1921 34.2029V32.2782H28.6089L28.3036 33.8318L30.1921 34.2029ZM28.3562 43.5457V45.4703H29.9395L30.2448 43.9168L28.3562 43.5457ZM21.4343 43.5457H19.5096V45.4703H21.4343V43.5457ZM21.4343 42.0867L19.5773 41.5808L19.5096 41.8292V42.0867H21.4343ZM23.5818 34.2029L25.4388 34.7087L26.1008 32.2782H23.5818V34.2029ZM16.3416 34.2029V32.2782H14.7583L14.453 33.8318L16.3416 34.2029ZM14.5056 43.5457V45.4703H16.0889L16.3942 43.9168L14.5056 43.5457ZM7.51636 43.5457H5.59168V45.4703H7.51636V43.5457ZM7.51636 42.0867L5.66341 41.5661L5.59168 41.8214V42.0867H7.51636ZM9.7312 34.2029L11.5841 34.7234L12.2711 32.2782H9.7312V34.2029ZM1.92456 34.2029H-0.000116467V36.1276H1.92456V34.2029ZM1.92456 32.6658L0.0958443 32.0656L-0.000116467 32.358V32.6658H1.92456ZM3.64526 27.4226V25.4979H2.25123L1.81655 26.8225L3.64526 27.4226ZM8.24585 27.4226H10.1705V25.4979H8.24585V27.4226ZM8.24585 27.9861H6.32117V29.9108H8.24585V27.9861ZM18.2136 27.9861V29.9108H20.1383V27.9861H18.2136ZM18.2136 26.5271H20.1383V24.6024H18.2136V26.5271ZM11.2224 26.5271L9.33541 26.1481L8.87279 28.4518H11.2224V26.5271ZM12.5115 20.1082L14.3985 20.4871L14.8611 18.1835H12.5115V20.1082ZM4.84155 20.1082H2.91688V22.0328H4.84155V20.1082ZM4.84155 18.7478L3.00912 18.1591L2.91688 18.4462V18.7478H4.84155ZM6.58276 13.3279V11.4032H5.17953L4.75033 12.7392L6.58276 13.3279ZM13.823 13.3279V15.2526H15.4043L15.7111 13.7013L13.823 13.3279ZM15.6599 4.03882V2.11414H14.0786L13.7718 3.66544L15.6599 4.03882ZM22.323 4.03882L24.2111 4.41219L24.6656 2.11414H22.323V4.03882ZM20.4861 13.3279V15.2526H27.7263V13.3279V11.4032H20.4861V13.3279ZM27.7263 13.3279L29.6144 13.7013L31.4513 4.41219L29.5632 4.03882L27.6751 3.66544L25.8382 12.9545L27.7263 13.3279ZM29.5632 4.03882V5.9635H36.1736V4.03882V2.11414H29.5632V4.03882ZM36.1736 4.03882L34.2854 3.66563L32.4495 12.9547L34.3376 13.3279L36.2258 13.7011L38.0617 4.412L36.1736 4.03882ZM34.3376 13.3279V15.2526H41.7351V13.3279V11.4032H34.3376V13.3279ZM41.7351 13.3279L39.8511 12.9342L38.4341 19.7144L40.3181 20.1082L42.2021 20.5019L43.6191 13.7216L41.7351 13.3279ZM40.3181 20.1082V18.1835H32.9734V20.1082V22.0328H40.3181V20.1082ZM32.9734 20.1082L31.0838 19.7422L29.9491 25.6016L31.8386 25.9675L33.7282 26.3335L34.863 20.4741L32.9734 20.1082ZM31.8386 25.9675V24.0429H25.1853V25.9675V27.8922H31.8386V25.9675ZM25.1853 25.9675L27.0722 26.3469L27.6201 23.6223L25.7332 23.2429L23.8462 22.8635L23.2984 25.5881L25.1853 25.9675ZM25.7332 23.2429V21.3182H25.7322V23.2429V25.1676H25.7332V23.2429ZM25.7322 23.2429L27.6189 23.6232L27.6687 23.3762L25.782 22.9958L23.8953 22.6155L23.8455 22.8626L25.7322 23.2429ZM25.782 22.9958L27.669 23.3748C28.2073 20.694 26.1634 18.2214 23.4602 18.1837L23.4333 20.1082L23.4065 22.0326C23.7356 22.0372 23.9524 22.3308 23.895 22.6169L25.782 22.9958ZM23.4333 20.1082V18.1835H19.1228V20.1082V22.0328H23.4333V20.1082ZM19.1228 20.1082L17.2332 19.7422L16.4608 23.7305L18.3503 24.0964L20.2399 24.4624L21.0124 20.4741L19.1228 20.1082ZM18.3503 24.0964L16.4609 23.7299L16.373 24.1831L18.2625 24.5496L20.1519 24.9161L20.2398 24.4629L18.3503 24.0964ZM18.2625 24.5496L16.3729 24.1836C15.8516 26.8753 17.9266 29.3469 20.6489 29.3473L20.6492 27.4226L20.6495 25.4979C20.3181 25.4979 20.0961 25.2042 20.152 24.9155L18.2625 24.5496ZM20.6492 27.4226V29.3473H23.5007V27.4226V25.4979H20.6492V27.4226ZM23.5007 27.4226H21.5761V27.4265H23.5007H25.4254V27.4226H23.5007ZM23.5007 27.4265V29.3512H33.4685V27.4265V25.5018H23.5007V27.4265ZM33.4685 27.4265H35.3932V27.4226H33.4685H31.5438V27.4265H33.4685ZM33.4685 27.4226V29.3473H38.7966V27.4226V25.4979H33.4685V27.4226ZM38.7966 27.4226L36.9126 27.0291L35.4966 33.8094L37.3806 34.2029L39.2646 34.5963L40.6807 27.8161L38.7966 27.4226ZM37.3806 34.2029V32.2782H30.1921V34.2029V36.1276H37.3806V34.2029ZM30.1921 34.2029L28.3036 33.8318L26.4676 43.1745L28.3562 43.5457L30.2448 43.9168L32.0807 34.574L30.1921 34.2029ZM28.3562 43.5457V41.621H21.4343V43.5457V45.4703H28.3562V43.5457ZM21.4343 43.5457H23.359V42.0867H21.4343H19.5096V43.5457H21.4343ZM21.4343 42.0867L23.2913 42.5925L25.4388 34.7087L23.5818 34.2029L21.7248 33.697L19.5773 41.5808L21.4343 42.0867ZM23.5818 34.2029V32.2782H16.3416V34.2029V36.1276H23.5818V34.2029ZM16.3416 34.2029L14.453 33.8318L12.6171 43.1745L14.5056 43.5457L16.3942 43.9168L18.2301 34.574L16.3416 34.2029ZM14.5056 43.5457V41.621H7.51636V43.5457V45.4703H14.5056V43.5457ZM7.51636 43.5457H9.44103V42.0867H7.51636H5.59168V43.5457H7.51636ZM7.51636 42.0867L9.3693 42.6072L11.5841 34.7234L9.7312 34.2029L7.87826 33.6823L5.66341 41.5661L7.51636 42.0867ZM9.7312 34.2029V32.2782H1.92456V34.2029V36.1276H9.7312V34.2029ZM1.92456 34.2029H3.84924V32.6658H1.92456H-0.000116467V34.2029H1.92456ZM1.92456 32.6658L3.75328 33.2659L5.47398 28.0228L3.64526 27.4226L1.81655 26.8225L0.0958443 32.0656L1.92456 32.6658ZM3.64526 27.4226V29.3473H8.24585V27.4226V25.4979H3.64526V27.4226ZM8.24585 27.4226H6.32117V27.9861H8.24585H10.1705V27.4226H8.24585ZM8.24585 27.9861V29.9108H18.2136V27.9861V26.0614H8.24585V27.9861ZM18.2136 27.9861H20.1383V26.5271H18.2136H16.2889V27.9861H18.2136ZM18.2136 26.5271V24.6024H11.2224V26.5271V28.4518H18.2136V26.5271ZM11.2224 26.5271L13.1094 26.906L14.3985 20.4871L12.5115 20.1082L10.6245 19.7292L9.33541 26.1481L11.2224 26.5271ZM12.5115 20.1082V18.1835H4.84155V20.1082V22.0328H12.5115V20.1082ZM4.84155 20.1082H6.76623V18.7478H4.84155H2.91688V20.1082H4.84155ZM4.84155 18.7478L6.67399 19.3365L8.4152 13.9166L6.58276 13.3279L4.75033 12.7392L3.00912 18.1591L4.84155 18.7478ZM6.58276 13.3279V15.2526H13.823V13.3279V11.4032H6.58276V13.3279ZM13.823 13.3279L15.7111 13.7013L17.548 4.41219L15.6599 4.03882L13.7718 3.66544L11.9349 12.9545L13.823 13.3279ZM15.6599 4.03882V5.9635H22.323V4.03882V2.11414H15.6599V4.03882ZM22.323 4.03882L20.4349 3.66544L18.598 12.9545L20.4861 13.3279L22.3742 13.7013L24.2111 4.41219L22.323 4.03882Z" fill="black" mask="url(#path-3-outside-2_1689_1620)"/>
<mask id="path-5-outside-3_1689_1620" maskUnits="userSpaceOnUse" x="0.229492" y="0" width="43" height="42" fill="black">
<rect fill="white" x="0.229492" width="43" height="42"/>
<path d="M18.2598 21.5264C17.9819 23.0109 19.1286 24.3838 20.6504 24.3838H23.502V24.3877H33.4697V24.3838H38.7979L37.3809 31.1641H30.1934L28.3574 40.5068H21.7461L23.583 31.1641H16.3428L14.5059 40.5068H7.84277L9.73145 31.1641H2.22949L3.64551 24.3838H11.0439L12.2197 18.5283H18.8408L18.2598 21.5264ZM20.4873 10.29H27.7275L29.5635 1H36.1748L34.3379 10.29H41.7354L40.3193 17.0693H32.9736L31.8389 22.9297H25.1865L25.7832 19.957C26.0809 18.4738 24.9504 17.0907 23.4346 17.0693H19.123V17.0703H12.5127V17.0693H5.16699L6.58398 10.29H13.8242L15.6602 1H22.3232L20.4873 10.29Z"/>
</mask>
<path d="M18.2598 21.5264C17.9819 23.0109 19.1286 24.3838 20.6504 24.3838H23.502V24.3877H33.4697V24.3838H38.7979L37.3809 31.1641H30.1934L28.3574 40.5068H21.7461L23.583 31.1641H16.3428L14.5059 40.5068H7.84277L9.73145 31.1641H2.22949L3.64551 24.3838H11.0439L12.2197 18.5283H18.8408L18.2598 21.5264ZM20.4873 10.29H27.7275L29.5635 1H36.1748L34.3379 10.29H41.7354L40.3193 17.0693H32.9736L31.8389 22.9297H25.1865L25.7832 19.957C26.0809 18.4738 24.9504 17.0907 23.4346 17.0693H19.123V17.0703H12.5127V17.0693H5.16699L6.58398 10.29H13.8242L15.6602 1H22.3232L20.4873 10.29Z" fill="white"/>
<path d="M18.2598 21.5264L17.278 21.3361L17.2768 21.3424L18.2598 21.5264ZM20.6504 24.3838L20.6504 25.3838H20.6504V24.3838ZM23.502 24.3838H24.502V23.3838H23.502V24.3838ZM23.502 24.3877H22.502V25.3877H23.502V24.3877ZM33.4697 24.3877V25.3877H34.4697V24.3877H33.4697ZM33.4697 24.3838V23.3838H32.4697V24.3838H33.4697ZM38.7979 24.3838L39.7767 24.5884L40.0284 23.3838H38.7979V24.3838ZM37.3809 31.1641V32.1641H38.1935L38.3597 31.3686L37.3809 31.1641ZM30.1934 31.1641V30.1641H29.3707L29.2121 30.9712L30.1934 31.1641ZM28.3574 40.5068V41.5068H29.18L29.3387 40.6997L28.3574 40.5068ZM21.7461 40.5068L20.7649 40.3139L20.5303 41.5068H21.7461V40.5068ZM23.583 31.1641L24.5642 31.357L24.7988 30.1641H23.583V31.1641ZM16.3428 31.1641V30.1641H15.5202L15.3616 30.9711L16.3428 31.1641ZM14.5059 40.5068V41.5068H15.3284L15.4871 40.6998L14.5059 40.5068ZM7.84277 40.5068L6.8626 40.3087L6.62039 41.5068H7.84277V40.5068ZM9.73145 31.1641L10.7116 31.3622L10.9538 30.1641H9.73145V31.1641ZM2.22949 31.1641L1.25061 30.9596L0.999074 32.1641H2.22949V31.1641ZM3.64551 24.3838V23.3838H2.83278L2.66663 24.1794L3.64551 24.3838ZM11.0439 24.3838V25.3838H11.8631L12.0244 24.5807L11.0439 24.3838ZM12.2197 18.5283V17.5283H11.4006L11.2393 18.3314L12.2197 18.5283ZM18.8408 18.5283L19.8226 18.7186L20.0532 17.5283H18.8408V18.5283ZM20.4873 10.29L19.5063 10.0962L19.2703 11.29H20.4873V10.29ZM27.7275 10.29V11.29H28.5493L28.7086 10.4839L27.7275 10.29ZM29.5635 1V0H28.7418L28.5825 0.806125L29.5635 1ZM36.1748 1L37.1558 1.19397L37.3919 0H36.1748V1ZM34.3379 10.29L33.3569 10.0961L33.1208 11.29H34.3379V10.29ZM41.7354 10.29L42.7142 10.4945L42.9658 9.29004H41.7354V10.29ZM40.3193 17.0693V18.0693H41.132L41.2982 17.2738L40.3193 17.0693ZM32.9736 17.0693V16.0693H32.1487L31.9919 16.8792L32.9736 17.0693ZM31.8389 22.9297V23.9297H32.6638L32.8206 23.1198L31.8389 22.9297ZM25.1865 22.9297L24.2061 22.7329L23.9659 23.9297H25.1865V22.9297ZM25.7832 19.957L26.7636 20.1538L26.7637 20.1538L25.7832 19.957ZM23.4346 17.0693L23.4487 16.0693H23.4346V17.0693ZM19.123 17.0693V16.0693H18.123V17.0693H19.123ZM19.123 17.0703V18.0703H20.123V17.0703H19.123ZM12.5127 17.0703H11.5127V18.0703H12.5127V17.0703ZM12.5127 17.0693H13.5127V16.0693H12.5127V17.0693ZM5.16699 17.0693L4.18815 16.8647L3.93636 18.0693H5.16699V17.0693ZM6.58398 10.29V9.29004H5.77139L5.60514 10.0854L6.58398 10.29ZM13.8242 10.29V11.29H14.6459L14.8052 10.4839L13.8242 10.29ZM15.6602 1V0H14.8384L14.6791 0.806125L15.6602 1ZM22.3232 1L23.3043 1.19387L23.5402 0H22.3232V1ZM18.2598 21.5264L17.2768 21.3424C16.8824 23.4495 18.51 25.3838 20.6504 25.3838L20.6504 24.3838L20.6504 23.3838C19.7472 23.3838 19.0813 22.5722 19.2427 21.7104L18.2598 21.5264ZM20.6504 24.3838V25.3838H23.502V24.3838V23.3838H20.6504V24.3838ZM23.502 24.3838H22.502V24.3877H23.502H24.502V24.3838H23.502ZM23.502 24.3877V25.3877H33.4697V24.3877V23.3877H23.502V24.3877ZM33.4697 24.3877H34.4697V24.3838H33.4697H32.4697V24.3877H33.4697ZM33.4697 24.3838V25.3838H38.7979V24.3838V23.3838H33.4697V24.3838ZM38.7979 24.3838L37.819 24.1792L36.402 30.9595L37.3809 31.1641L38.3597 31.3686L39.7767 24.5884L38.7979 24.3838ZM37.3809 31.1641V30.1641H30.1934V31.1641V32.1641H37.3809V31.1641ZM30.1934 31.1641L29.2121 30.9712L27.3762 40.314L28.3574 40.5068L29.3387 40.6997L31.1746 31.3569L30.1934 31.1641ZM28.3574 40.5068V39.5068H21.7461V40.5068V41.5068H28.3574V40.5068ZM21.7461 40.5068L22.7273 40.6998L24.5642 31.357L23.583 31.1641L22.6018 30.9711L20.7649 40.3139L21.7461 40.5068ZM23.583 31.1641V30.1641H16.3428V31.1641V32.1641H23.583V31.1641ZM16.3428 31.1641L15.3616 30.9711L13.5246 40.3139L14.5059 40.5068L15.4871 40.6998L17.324 31.357L16.3428 31.1641ZM14.5059 40.5068V39.5068H7.84277V40.5068V41.5068H14.5059V40.5068ZM7.84277 40.5068L8.82295 40.705L10.7116 31.3622L9.73145 31.1641L8.75127 30.9659L6.8626 40.3087L7.84277 40.5068ZM9.73145 31.1641V30.1641H2.22949V31.1641V32.1641H9.73145V31.1641ZM2.22949 31.1641L3.20837 31.3685L4.62439 24.5882L3.64551 24.3838L2.66663 24.1794L1.25061 30.9596L2.22949 31.1641ZM3.64551 24.3838V25.3838H11.0439V24.3838V23.3838H3.64551V24.3838ZM11.0439 24.3838L12.0244 24.5807L13.2002 18.7252L12.2197 18.5283L11.2393 18.3314L10.0635 24.1869L11.0439 24.3838ZM12.2197 18.5283V19.5283H18.8408V18.5283V17.5283H12.2197V18.5283ZM18.8408 18.5283L17.8591 18.338L17.278 21.3361L18.2598 21.5264L19.2415 21.7166L19.8226 18.7186L18.8408 18.5283ZM20.4873 10.29V11.29H27.7275V10.29V9.29004H20.4873V10.29ZM27.7275 10.29L28.7086 10.4839L30.5445 1.19387L29.5635 1L28.5825 0.806125L26.7465 10.0962L27.7275 10.29ZM29.5635 1V2H36.1748V1V0H29.5635V1ZM36.1748 1L35.1938 0.806026L33.3569 10.0961L34.3379 10.29L35.3189 10.484L37.1558 1.19397L36.1748 1ZM34.3379 10.29V11.29H41.7354V10.29V9.29004H34.3379V10.29ZM41.7354 10.29L40.7565 10.0856L39.3405 16.8649L40.3193 17.0693L41.2982 17.2738L42.7142 10.4945L41.7354 10.29ZM40.3193 17.0693V16.0693H32.9736V17.0693V18.0693H40.3193V17.0693ZM32.9736 17.0693L31.9919 16.8792L30.8571 22.7396L31.8389 22.9297L32.8206 23.1198L33.9554 17.2594L32.9736 17.0693ZM31.8389 22.9297V21.9297H25.1865V22.9297V23.9297H31.8389V22.9297ZM25.1865 22.9297L26.167 23.1265L26.7636 20.1538L25.7832 19.957L24.8028 19.7602L24.2061 22.7329L25.1865 22.9297ZM25.7832 19.957L26.7637 20.1538C27.1862 18.0485 25.5811 16.0995 23.4487 16.0694L23.4346 17.0693L23.4205 18.0692C24.3197 18.0819 24.9756 18.8991 24.8028 19.7603L25.7832 19.957ZM23.4346 17.0693V16.0693H19.123V17.0693V18.0693H23.4346V17.0693ZM19.123 17.0693H18.123V17.0703H19.123H20.123V17.0693H19.123ZM19.123 17.0703V16.0703H12.5127V17.0703V18.0703H19.123V17.0703ZM12.5127 17.0703H13.5127V17.0693H12.5127H11.5127V17.0703H12.5127ZM12.5127 17.0693V16.0693H5.16699V17.0693V18.0693H12.5127V17.0693ZM5.16699 17.0693L6.14584 17.2739L7.56283 10.4946L6.58398 10.29L5.60514 10.0854L4.18815 16.8647L5.16699 17.0693ZM6.58398 10.29V11.29H13.8242V10.29V9.29004H6.58398V10.29ZM13.8242 10.29L14.8052 10.4839L16.6412 1.19387L15.6602 1L14.6791 0.806125L12.8432 10.0962L13.8242 10.29ZM15.6602 1V2H22.3232V1V0H15.6602V1ZM22.3232 1L21.3422 0.806125L19.5063 10.0962L20.4873 10.29L21.4683 10.4839L23.3043 1.19387L22.3232 1Z" fill="black" mask="url(#path-5-outside-3_1689_1620)"/>
</svg>
